<svg xmlns="http://www.w3.org/2000/svg" width="87.41" height="87.41" viewBox="0 0 87.41 87.41">
  <path id="Path_3214" data-name="Path 3214" d="M87.41,43.705A43.705,43.705,0,1,1,43.705,0,43.705,43.705,0,0,1,87.41,43.705ZM71.116,33.091V18.129H45.663V33.091c4.891.2,9.818,2.544,9.837,7.144v1.754H31.91V40.235c.02-4.6,4.946-6.943,9.837-7.144V18.129H16.294V33.091c2.647,0,4.328.859,4.328,4.75V48.76c0,3.037-.878,3.821-4.328,3.821v16.7H41.747V52.58H35.594c-2.462,0-3.676-1.1-3.684-3.811V46.91H55.5v1.859c-.008,2.713-1.222,3.811-3.684,3.811H45.663v16.7H71.116V52.58c-3.45,0-4.328-.784-4.328-3.821V37.841C66.788,33.95,68.469,33.091,71.116,33.091Z" fill="#e52e00"/>
</svg>
