<svg height="128" viewBox="0 0 128 128" width="128" xmlns="http://www.w3.org/2000/svg"><g fill="none" fill-rule="evenodd"><circle cx="64" cy="64" fill="#fff" r="60"/><path d="m89.836 94.9170192-.467 1.778h.932zm0 0-.467 1.778h.932zm-5.141-.328h-.48v1.4h.48c.3865993 0 .6999998-.3134007.6999998-.7 0-.3865992-.3134005-.7-.6999998-.7zm5.141.328-.467 1.778h.932zm0 0-.467 1.778h.932zm-5.141-.328h-.48v1.4h.48c.3865993 0 .6999998-.3134007.6999998-.7 0-.3865992-.3134005-.7-.6999998-.7zm-13.194-.124c-.443 0-.706.443-.706 1.647v.015c0 1.2.263 1.645.706 1.645s.706-.443.706-1.645v-.015c0-1.204-.264-1.647-.708-1.647zm13.194.124h-.48v1.4h.48c.3865993 0 .6999998-.3134007.6999998-.7 0-.3865992-.3134005-.7-.6999998-.7zm5.141.328-.467 1.778h.932zm0 0-.467 1.778h.932zm-5.141-.328h-.48v1.4h.48c.3865993 0 .6999998-.3134007.6999998-.7 0-.3865992-.3134005-.7-.6999998-.7zm-13.194-.124c-.443 0-.706.443-.706 1.647v.015c0 1.2.263 1.645.706 1.645s.706-.443.706-1.645v-.015c0-1.204-.264-1.647-.708-1.647zm-13.719.124h-.436v1.211h.436c.465 0 .651-.17.651-.6s-.186-.611-.651-.611zm13.719-.124c-.443 0-.706.443-.706 1.647v.015c0 1.2.263 1.645.706 1.645s.706-.443.706-1.645v-.015c0-1.204-.264-1.647-.708-1.647zm13.194.124h-.48v1.4h.48c.3865993 0 .6999998-.3134007.6999998-.7 0-.3865992-.3134005-.7-.6999998-.7zm5.141.328-.467 1.778h.932zm0 0-.467 1.778h.932zm-5.141-.328h-.48v1.4h.48c.3865993 0 .6999998-.3134007.6999998-.7 0-.3865992-.3134005-.7-.6999998-.7zm-13.194-.124c-.443 0-.706.443-.706 1.647v.015c0 1.2.263 1.645.706 1.645s.706-.443.706-1.645v-.015c0-1.204-.264-1.647-.708-1.647zm-13.719.124h-.436v1.211h.436c.465 0 .651-.17.651-.6s-.186-.611-.651-.611zm-16.805 0h-.434v1.211h.434c.465 0 .651-.17.651-.6s-.186-.611-.651-.611zm16.805 0h-.436v1.211h.436c.465 0 .651-.17.651-.6s-.186-.611-.651-.611zm13.719-.124c-.443 0-.706.443-.706 1.647v.015c0 1.2.263 1.645.706 1.645s.706-.443.706-1.645v-.015c0-1.204-.264-1.647-.708-1.647zm13.194.124h-.48v1.4h.48c.3865993 0 .6999998-.3134007.6999998-.7 0-.3865992-.3134005-.7-.6999998-.7zm5.141.328-.467 1.778h.932zm0 0-.467 1.778h.932zm-5.141-.328h-.48v1.4h.48c.3865993 0 .6999998-.3134007.6999998-.7 0-.3865992-.3134005-.7-.6999998-.7zm-13.194-.124c-.443 0-.706.443-.706 1.647v.015c0 1.2.263 1.645.706 1.645s.706-.443.706-1.645v-.015c0-1.204-.264-1.647-.708-1.647zm-13.719.124h-.436v1.211h.436c.465 0 .651-.17.651-.6s-.186-.611-.651-.611zm-16.805 0h-.434v1.211h.434c.465 0 .651-.17.651-.6s-.186-.611-.651-.611zm0 0h-.434v1.211h.434c.465 0 .651-.17.651-.6s-.186-.611-.651-.611zm16.805 0h-.436v1.211h.436c.465 0 .651-.17.651-.6s-.186-.611-.651-.611zm13.719-.124c-.443 0-.706.443-.706 1.647v.015c0 1.2.263 1.645.706 1.645s.706-.443.706-1.645v-.015c0-1.204-.264-1.647-.708-1.647zm13.194.124h-.48v1.4h.48c.3865993 0 .6999998-.3134007.6999998-.7 0-.3865992-.3134005-.7-.6999998-.7zm5.141.328-.467 1.778h.932zm0 0-.467 1.778h.932zm-5.141-.328h-.48v1.4h.48c.3865993 0 .6999998-.3134007.6999998-.7 0-.3865992-.3134005-.7-.6999998-.7zm-13.194-.124c-.443 0-.706.443-.706 1.647v.015c0 1.2.263 1.645.706 1.645s.706-.443.706-1.645v-.015c0-1.204-.264-1.647-.708-1.647zm-13.719.124h-.436v1.211h.436c.465 0 .651-.17.651-.6s-.186-.611-.651-.611zm-16.805 0h-.434v1.211h.434c.465 0 .651-.17.651-.6s-.186-.611-.651-.611zm22.79-94.58900959c-35.2175416 0-63.767 28.54946799-63.767 63.76700959 0 35.2175417 28.5494584 63.7669998 63.767 63.7669998s63.76701-28.5494581 63.76701-63.7669998c.009282-16.9149067-6.706024-33.1396919-18.666671-45.100339-11.9606471-11.960647-28.1854323-18.67595275-45.100339-18.66667059zm13.484 23.20000959 20.454 1.519-.8 10.781-4.787-.356.142-1.886c.109-1.486-.381-2.269-.983-2.314-.494-.038-.83.4-.879 1.306l-1.027 13.849c-.126 1.687.332 2.427 1.574 2.52l.4.029-.5 6.744-11.345-.841.5-6.744.4.029c1.242.093 1.8-.551 1.931-2.258l1.03-13.849c.066-.9-.2-1.386-.693-1.424-.6-.044-1.187.66-1.3 2.145l-.14 1.886-4.787-.354zm6.56 41.457c-1.078-.02-1.643.744-1.669 2.272l-.058 3.259 2.856.051-.086 5.055-2.858-.051-.062 3.651c-.027 1.526.509 2.307 1.588 2.327 1.65.029 2.5-1.942 2.562-5.418l5.553.1-.206 11.768-18.052-.31.111-6.312c1.189.022 1.8-.722 1.822-2.207l.21-12.067c.0266667-1.486-.5543333-2.249-1.743-2.289l.109-6.315 18.052.317-.2 11.578-5.553-.1c.055-3.301-.726-5.276-2.376-5.305zm-28.168-17.221h.1c1.244 0 1.541-.651 1.917-2.232l2.584-11.611c.345-1.552-.075-2.221-1.076-2.221h-.434v-6.122h12.674l4.7 19.958c.374 1.581.673 2.232 1.917 2.232h.1v6.122h-10.338v-6.122h.551c1.125 0 1.576-1.109 1.309-2.2l-.374-1.618h-5.3l-.361 1.618c-.182 1.092.175 2.2 1.3 2.2h.551v6.122h-9.815zm-15.512-24.4.217 6.955c-1.189.038-1.769.908-1.716 2.591l.113 3.611 5.759-.179-.113-3.611c-.053-1.683-.684-2.515-1.873-2.48l-.217-6.955 11.053-.345.217 6.957c-1.3086667.062-1.9373333.9123334-1.886 2.551l.414 13.294c.051 1.636.733 2.447 2.042 2.4l.217 6.955-11.053.345-.217-6.957c1.187-.035 1.767-.906 1.714-2.588l-.124-3.972-5.757.179.122 3.972c.053 1.683.687 2.515 1.873 2.478l.217 6.955-11.053.345-.217-6.955c1.311-.04 1.939-.892 1.889-2.529l-.414-13.294c-.0506667-1.6386666-.7313333-2.4476666-2.042-2.427l-.217-6.957zm-26.383 63.464c-2.265-2.606-3.735-7.172-4.214-11.93-.463-4.632-.1-9.751 1.373-12.691 1.1400965-2.7055743 3.6766358-4.5641657 6.6-4.836.9954592-.1309789 2.0073809.0371526 2.907.483.5128999.3402025 1.1028606.5464825 1.716.6.635-.064.908-.447.839-1.134l5.354-.536 1.3 12.939-6.74.678c-.467-4.087-1.554-5.949-3.23-5.781-1.829.184-2.354 4.229-1.829 9.443.545 5.442 1.811 8.938 3.6 8.757 1.616-.162 2.351-2.916 1.99-7.1l6.74-.677c.252 4.386.175 8.119-1.216 10.756-1.3102716 2.5749574-3.886987 4.2627041-6.771 4.435-3.2053657.3883156-6.3853046-.898164-8.419-3.406zm16.225 12.335h-2.88v-5.435h2.927c.5000827-.0444666.9988933.0980507 1.4.4.2819664.2547568.4383474.6201329.428 1 0 .582-.4 1.087-1.258 1.251 1.025.124 1.421.666 1.421 1.351-.004.923-.803 1.434-2.038 1.434zm7.688-2.234c.0307383.6236078-.180237 1.2350422-.589 1.707-.4828185.4640356-1.1415667.6985486-1.809.644-.6719871.0550309-1.3355329-.1792473-1.824-.644-.4047019-.4738945-.6129152-1.0845822-.582-1.707v-3.2h1.84v3.478c0 .527.2.753.6.753s.6-.226.6-.753v-3.479h1.769zm4.178 2.234-.877-1.847h-.418v1.847h-1.845v-5.435h2.61c1.546 0 2.236.731 2.236 1.793.0199475.6263906-.366154 1.1942344-.956 1.406l1.189 2.234zm-.516-23.118h-1.229v3.718c0 1.545.558 2.329 1.65 2.329h.5v6.4h-.5-10.161v-6.392c1.2 0 1.8-.764 1.8-2.267v-12.229c0-1.5053333-.6-2.2676666-1.8-2.287v-6.4h12.4c1.9444309-.0664094 3.8296319.6749293 5.208 2.048 1.3146719 1.5027781 1.9957034 3.4566217 1.9 5.451 0 3.326-1.756 5.7-4.251 6.295 2.489.635 4.178 3.37 4.406 6.917v-.035c.115 1.539.7 2.69 1.813 2.788l.483.022v6.456h-4.84c-2.655-.164-4.056-1.86-4.24-4.681l-.224-4.211c-.113-2.433-1.089-3.921-2.916-3.921zm8.033 23.118h-1.335l-.1-.706c-.2373639.5565556-.8117178.8914938-1.413.824-.6016786.0047626-1.1761365-.2503901-1.576-.7-.4791452-.6010387-.711866-1.3617604-.651-2.128v-.015c-.0328388-.7452376.2172-1.4753509.7-2.044.5106669-.5383272 1.2321255-.8250091 1.973-.784 1.459 0 2.212.607 2.36 1.716l-1.623.164c-.069-.443-.319-.691-.7-.691-.2509818-.0096846-.4848899.1267618-.6.35-.1608983.4095656-.2268843.85027-.193 1.289v.015c-.0343784.442338.0315965.8867282.193 1.3.1220026.2220769.3599111.355197.613.343.4 0 .653-.3.653-.777v-.024h-.808v-1.218h2.509zm5.11-4.16h-2.252v.753h1.9v1.258h-1.9v.877h2.252v1.273h-4.092v-5.436h4.092zm.414-14.069c1.116-.024 1.658-.746 1.627-2.141l-.259-11.334c-.0313333-1.3946666-.6056667-2.089-1.723-2.083l-.133-5.929 16.953-.385.248 10.876-5.216.12c-.071-3.106-.877-4.931-2.429-4.9-1.012.024-1.512.762-1.479 2.2l.069 3.062 2.684-.06.108 4.747-2.684.06.078 3.43c.033 1.433.564 2.148 1.578 2.123 1.55-.035 2.274-1.917 2.2-5.181l5.216-.12.25 11.055-16.954.39zm3.764 18.229-.877-1.847h-.421v1.847h-1.84v-5.435h2.608c1.545 0 2.236.731 2.236 1.793.020877.6260533-.3645373 1.1940748-.954 1.406l1.187 2.234zm7.18.117c-.7290705.0382823-1.4381146-.2458473-1.939-.777-.4840234-.5695262-.7341618-1.3013596-.7-2.048v-.015c-.0340723-.7472341.2160244-1.4796602.7-2.05.5009637-.5310376 1.2099522-.8151449 1.939-.777.6200194-.048614 1.233298.1559324 1.7.567.39344.4015665.6400475.9240221.7 1.483l-1.676.17c-.087-.753-.281-1.032-.691-1.032-.238856-.0021946-.4573054.1343363-.56.35-.162913.4090481-.2296304.8500676-.195 1.289v.015c-.0345945.4389312.0321217.8799426.195 1.289.1034588.2149807.321423.3512084.56.35.1791798.0059021.3509554-.071674.465-.21.1539766-.2647588.2392341-.5638477.248-.87l1.694.17c-.017676.6120664-.2924153 1.1883597-.7568001 1.5874642-.4643848.3991044-1.0754328.58408-1.6831999.5095358zm8.3-2.825c.0430572.760608-.2201966 1.5067937-.731 2.072-.4965424.5111096-1.1881358.785199-1.9.753-.711259.0286159-1.4014439-.2449152-1.9-.753-.5043586-.5685069-.7638397-1.3131672-.722-2.072v-.015c-.0424238-.7598202.2170815-1.5056285.722-2.075.4991205-.5072339 1.1889126-.7806094 1.9-.753.7116906-.0311654 1.402876.2427623 1.9.753.511368.5660689.7746466 1.3134056.731 2.075zm7.245 2.708h-1.756v-3.507l-.886 3.507h-1.481l-.886-3.507v3.507h-1.505v-5.435h2.577l.713 2.98.715-2.98h2.509zm3.7-1.661h-.861v1.661h-1.84v-5.435h2.7c1.366 0 2.221.682 2.221 1.886s-.847 1.889-2.214 1.889zm5.792 1.661-.241-.923h-1.583l-.241.923h-1.63l1.654-5.433h2.3l1.654 5.433zm7.4 0h-1.592l-1.683-2.639v2.639h-1.638v-5.435h1.685l1.59 2.491v-2.491h1.638zm4.172-1.754v1.754h-1.84v-1.754l-1.756-3.68h1.973l.854 2 .846-2h1.676zm14.009-34.545c-1.209-.066-1.942.992-2.752 1.873l-4.7 5.314c3.328.651 4.94 3.569 5.042 7.473.042 1.685.569 3 1.725 3.162l.5.051-.376 6.733-5.059-.283c-2.768-.325-4.134-2.181-4.158-5.139l.016-4.543c.024-2.557-1.111-4.12-3.022-4.229l-1.061-.058-.221 3.97c-.091 1.614.445 2.467 1.588 2.529l.52.031-.374 6.684-.52-.033-10.619-.593.374-6.682c1.258.073 1.931-.691 2.019-2.263l.713-12.773c.0886667-1.572-.496-2.4053333-1.754-2.5l.374-6.682 10.683.6-.374 6.682c-1.14-.064-1.833.72-1.924 2.336l-.252 4.517 4.287-5.05c.531-.591.85-1.51-.279-1.661l.376-6.72 9.762.545-.376 6.72zm-27.079 34.157h.932l-.465-1.778zm-4.674-2.106h-.48v1.4h.48c.3865993 0 .6999998-.3134007.6999998-.7 0-.3865992-.3134005-.7-.6999998-.7zm-13.194-.124c-.443 0-.706.443-.706 1.647v.015c0 1.2.263 1.645.706 1.645s.706-.443.706-1.645v-.015c.006-1.202-.258-1.645-.702-1.645zm-13.719.124h-.436v1.213h.436c.465 0 .651-.17.651-.6s-.18-.611-.645-.611zm-16.805 0h-.434v1.213h.434c.465 0 .651-.17.651-.6s-.18-.611-.645-.611zm-11.509 2.013h-.536v1.165h.536c.443 0 .629-.157.629-.582s-.18-.583-.623-.583zm.5-1.592c0-.365-.155-.536-.558-.536h-.483v1.072h.483c.414.002.569-.169.569-.534zm11-.421h-.434v1.213h.434c.465 0 .651-.17.651-.6s-.171-.611-.636-.611zm16.805 0h-.436v1.213h.436c.465 0 .651-.17.651-.6s-.171-.611-.636-.611zm13.719-.124c-.443 0-.706.443-.706 1.647v.015c0 1.2.263 1.645.706 1.645s.706-.443.706-1.645v-.015c.015-1.202-.249-1.645-.693-1.645zm13.194.124h-.48v1.4h.48c.3865993 0 .6999998-.3134007.6999998-.7 0-.3865992-.3134005-.7-.6999998-.7zm5.141.328-.467 1.778h.932zm0 0-.467 1.778h.932zm-5.141-.328h-.48v1.4h.48c.3865993 0 .6999998-.3134007.6999998-.7 0-.3865992-.3134005-.7-.6999998-.7zm-13.194-.124c-.443 0-.706.443-.706 1.647v.015c0 1.2.263 1.645.706 1.645s.706-.443.706-1.645v-.015c.015-1.202-.249-1.645-.693-1.645zm-13.719.124h-.436v1.213h.436c.465 0 .651-.17.651-.6s-.171-.611-.636-.611zm-16.805 0h-.434v1.213h.434c.465 0 .651-.17.651-.6s-.171-.611-.636-.611zm16.805 0h-.436v1.213h.436c.465 0 .651-.17.651-.6s-.171-.611-.636-.611zm13.719-.124c-.443 0-.706.443-.706 1.647v.015c0 1.2.263 1.645.706 1.645s.706-.443.706-1.645v-.015c.015-1.202-.249-1.645-.693-1.645zm13.194.124h-.48v1.4h.48c.3865993 0 .6999998-.3134007.6999998-.7 0-.3865992-.3134005-.7-.6999998-.7zm5.141.328-.467 1.778h.932zm0 0-.467 1.778h.932zm-5.141-.328h-.48v1.4h.48c.3865993 0 .6999998-.3134007.6999998-.7 0-.3865992-.3134005-.7-.6999998-.7zm-13.194-.124c-.443 0-.706.443-.706 1.647v.015c0 1.2.263 1.645.706 1.645s.706-.443.706-1.645v-.015c.015-1.202-.249-1.645-.693-1.645zm-13.719.124h-.436v1.213h.436c.465 0 .651-.17.651-.6s-.171-.611-.636-.611zm0 0h-.436v1.213h.436c.465 0 .651-.17.651-.6s-.171-.611-.636-.611zm13.719-.124c-.443 0-.706.443-.706 1.647v.015c0 1.2.263 1.645.706 1.645s.706-.443.706-1.645v-.015c.015-1.202-.249-1.645-.693-1.645zm13.194.124h-.48v1.4h.48c.3865993 0 .6999998-.3134007.6999998-.7 0-.3865992-.3134005-.7-.6999998-.7zm5.141.328-.467 1.778h.932zm0 0-.467 1.778h.932zm-5.141-.328h-.48v1.4h.48c.3865993 0 .6999998-.3134007.6999998-.7 0-.3865992-.3134005-.7-.6999998-.7zm-13.194-.124c-.443 0-.706.443-.706 1.647v.015c0 1.2.263 1.645.706 1.645s.706-.443.706-1.645v-.015c.015-1.202-.249-1.645-.693-1.645zm-13.719.124h-.436v1.213h.436c.465 0 .651-.17.651-.6s-.171-.611-.636-.611zm13.719-.124c-.443 0-.706.443-.706 1.647v.015c0 1.2.263 1.645.706 1.645s.706-.443.706-1.645v-.015c.015-1.202-.249-1.645-.693-1.645zm13.194.124h-.48v1.4h.48c.3865993 0 .6999998-.3134007.6999998-.7 0-.3865992-.3134005-.7-.6999998-.7zm5.141.328-.467 1.778h.932zm0 0-.467 1.778h.932zm-5.141-.328h-.48v1.4h.48c.3865993 0 .6999998-.3134007.6999998-.7 0-.3865992-.3134005-.7-.6999998-.7zm-13.194-.124c-.443 0-.706.443-.706 1.647v.015c0 1.2.263 1.645.706 1.645s.706-.443.706-1.645v-.015c.015-1.202-.249-1.645-.693-1.645zm13.194.124h-.48v1.4h.48c.3865993 0 .6999998-.3134007.6999998-.7 0-.3865992-.3134005-.7-.6999998-.7zm5.141.328-.467 1.778h.932zm0 0-.467 1.778h.932zm-5.141-.328h-.48v1.4h.48c.3865993 0 .6999998-.3134007.6999998-.7 0-.3865992-.3134005-.7-.6999998-.7zm-18.125-62.648-1.51 6.78h3.078zm-24.685 33.252c-1.134 0-1.793.709-1.793 2.092v3.35h1.125c.7734084-.0164751 1.5075186-.3440389 2.0363539-.9086318s.8077365-1.3185358.7736461-2.0913682c.0632973-.6107222-.1298621-1.2203048-.5333334-1.6831212-.4034713-.4628165-.9810179-.7373004-1.5946666-.7578788z" fill="#e52e00" fill-rule="nonzero"/></g></svg>