<?xml version="1.0" encoding="UTF-8"?>
<svg xmlns="http://www.w3.org/2000/svg" xmlns:xlink="http://www.w3.org/1999/xlink" id="Group_3070" data-name="Group 3070" width="190.035" height="254.874" viewBox="0 0 190.035 254.874">
  <defs>
    <clipPath id="clip-path">
      <rect id="Rectangle_1496" data-name="Rectangle 1496" width="190.036" height="254.874" fill="none"></rect>
    </clipPath>
  </defs>
  <g id="Group_2615" data-name="Group 2615" clip-path="url(#clip-path)">
    <path id="Path_6150" data-name="Path 6150" d="M91.491,172.146c1.767-3.981-1.092-12.089-2.746-15.972-1.812-4.252-5.318-8.391-9.6-10.266-4.9-2.145-10.31-2.488-15.557-2.815-4.42-.275-10.233-3.532-12.338-7.55-2.8-5.336-1.518-13.372-1.345-19.06.215-7.1-.247-15.417,1.622-22.338,2.693-9.97,18.247-9.793,25.821-13.578A9.1,9.1,0,0,0,79.063,79.4,15.65,15.65,0,0,1,83.7,75.9c4.278-2.065,9.053-3.273,13.521-4.878,1.746-.627,3.4-1.484,5.138-1.923a30.32,30.32,0,0,1,6.216-.406c3.623-.155,6.87-2.633,10.683-1.958a22.094,22.094,0,0,1,7.36,3.464c3.7,2.507,5.44,5.738,7.072,9.815,1.227,3.066,2.949,5.97,3.51,9.269a61.86,61.86,0,0,1,.587,9.231c.053,3.5-.277,6.945-.313,10.431-.026,2.6.281,5.445-.685,7.964-.905,2.361-2.734,4.4-3.811,6.738a82.161,82.161,0,0,0-4.565,14.138c-1.487,5.7-5.8,8.6-9.718,12.314-4.18,3.972-5.547,10.542-8.212,15.82a23.071,23.071,0,0,0-1.959,5.622c-.26,1.189-3.127,2.552-4.106,3.472-2.337,2.2-10.159-.5-12.486-1.929-.736-.451-1.828-1.147-.441-.942" transform="translate(-17.115 -23.051)" fill="#fff"></path>
    <path id="Path_6151" data-name="Path 6151" d="M131.634,243.852c0,.883-.006,1.766,0,2.649,0,.334-.08.516-.473.477a8.6,8.6,0,0,0-.986.027c-1.32.019-2.642.021-3.963.054-1.868.047-3.737.1-5.6.182-1.593.071-3.19.317-4.774.247s-3.174.189-4.77.114a33.2,33.2,0,0,0-3.443.224c-.71.041-1.423.024-2.134.053-.852.036-1.7.113-2.553.138-.931.027-1.864,0-2.8.023-.687.015-1.372.07-2.059.094-1.343.048-2.686.088-4.029.131a.32.32,0,0,1-.365-.349q-.044-1.317-.078-2.634c-.009-.38,0-.761-.007-1.142-.008-.358-.052-.716-.043-1.073.041-1.615.094-3.229.145-4.845a1.9,1.9,0,0,1,.042-.576c.286-.777-.17-1.448-.291-2.164-.021-.124-.207-.227-.329-.324-.46-.364-.449-.738.069-1.014a2.948,2.948,0,0,1,.852-.3c.782-.14,1.572-.232,2.355-.364.648-.109,1.288-.269,1.937-.368,1.632-.25,3.265-.492,4.9-.71.736-.1,1.482-.123,2.223-.188,1.339-.118,2.678-.225,4.014-.365,1.912-.2,3.82-.444,5.733-.635,1.885-.188,3.785-.25,5.656-.524a44.491,44.491,0,0,1,4.436-.356c.761-.035,1.512-.259,2.274-.323,1.56-.133,3.125-.215,4.689-.318.11-.007.24.027.326-.021a5.726,5.726,0,0,1,2.437-.318c.326-.03.649-.1.973-.151a1.682,1.682,0,0,1,2.086,1.031,1.278,1.278,0,0,1-.489,1.521c-.194.183-.229.228-.053.419a18.789,18.789,0,0,1,2.6,4,9.9,9.9,0,0,1,1.01,2.057c.29,1.08.611,2.153.9,3.233.143.53.264,1.067.362,1.608.22,1.216.421,2.436.628,3.654.042.251.006.323-.3.258a8.943,8.943,0,0,0-1.855-.224c-2.284.013-4.567.071-6.85.117-1.048.021-1.029.025-1.116-1.057-.128-1.591-.281-3.18-.437-4.769a2.6,2.6,0,0,0-.192-.714c-.109-.266-.366-.279-.482-.014a2.149,2.149,0,0,0-.184.789c-.022.91-.008,1.821-.008,2.732Z" transform="translate(-32.107 -79.29)" fill="#e52e00"></path>
    <path id="Path_6152" data-name="Path 6152" d="M21.754,263.772c.054.063.111.122.16.188.948,1.283,1.9,2.563,2.84,3.851.483.662.918,1.36,1.42,2.007.706.906,1.462,1.773,2.184,2.668.294.364.551.757.827,1.136.205.284.065.531-.1.757-.5.689-1,1.384-1.536,2.052-1.133,1.417-2.292,2.815-3.431,4.228q-1.446,1.8-2.868,3.61c-.66.846-1.294,1.712-1.937,2.57-.066.088-.112.19-.178.279-.633.857-.723.847-1.414.088q-2.135-2.347-4.306-4.66c-.962-1.02-1.961-2-2.953-3a2.234,2.234,0,0,0-.655-.5.968.968,0,0,0-.688-.029c-.259.111-.265.4-.139.647a5.858,5.858,0,0,0,.607,1.158c.949,1.137,1.948,2.231,2.921,3.348,1.476,1.693,2.942,3.4,4.424,5.084a.409.409,0,0,1,0,.633c-.929,1.121-1.874,2.231-2.766,3.381s-1.713,2.345-2.588,3.5c-1.227,1.623-2.475,3.23-3.715,4.844-.067.088-.128.181-.2.264-.9,1.076-.5,1.163-1.615.093a32.743,32.743,0,0,1-2.723-2.866A10.254,10.254,0,0,1,.977,294.9a.777.777,0,0,0-.243-.393,1.486,1.486,0,0,1-.536-2.02c.364-.8.8-1.571,1.225-2.34.509-.913,1.039-1.814,1.574-2.711.209-.351.469-.672.689-1.017.324-.508.608-1.043.952-1.536a20.819,20.819,0,0,1,1.989-2.834A10.5,10.5,0,0,0,7.87,280.03a3.573,3.573,0,0,1,.27-.415c.951-1.172,1.9-2.347,2.863-3.507.545-.654,1.136-1.27,1.68-1.925.385-.464.714-.973,1.09-1.446.239-.3.513-.573.777-.853.113-.12.276-.2.357-.34a49.493,49.493,0,0,1,3.307-4.109,14.036,14.036,0,0,1,1.205-1.245,2.778,2.778,0,0,0,.484-.561c.406-.755,1.194-1.132,1.713-1.77a.55.55,0,0,1,.137-.086" transform="translate(0 -91.265)" fill="#e52e00"></path>
    <path id="Path_6153" data-name="Path 6153" d="M138.078,263.789c0,1.324-.02,2.649.006,3.972.022,1.155.107,2.308.142,3.463.02.653-.046.641-.714.653-1.536.027-3.072.109-4.608.169-.275.011-.549.028-.823.043q-2.305.123-4.611.246c-.465.025-.532-.036-.625-.535-.08-.431-.139-.868-.252-1.291-.034-.126-.22-.209-.337-.313-.1.12-.26.232-.274.361-.05.437-.043.881-.067,1.321-.02.375-.156.578-.6.594-2.5.089-5.007.128-7.5.355-1.692.155-3.395.048-5.085.37-.923.176-1.044.3-1.109-.923-.1-1.833-.213-3.666-.32-5.5-.071-1.21-.139-2.42-.216-3.63-.042-.656-.095-1.312-.155-1.967-.027-.29.031-.453.37-.5a12.109,12.109,0,0,1,2.04-.174c1.062.031,2.128-.081,3.193-.118,1.812-.063,3.624-.1,5.435-.177,1.26-.055,2.518-.181,3.778-.241s2.515-.076,3.773-.12c.575-.02,1.15-.065,1.725-.1l6-.332a1.848,1.848,0,0,0,.248,0c.4-.081.549.1.545.49-.009.936,0,1.872,0,2.808v1.073h.041" transform="translate(-38.381 -89.752)" fill="#e52e00"></path>
    <path id="Path_6154" data-name="Path 6154" d="M141.136,369.087a3.736,3.736,0,0,1-.207,1.768,13.832,13.832,0,0,1-1.795,3.781,8.36,8.36,0,0,1-2.933,2.481,21.369,21.369,0,0,1-3.7,1.557,26.644,26.644,0,0,1-3.717.616,18.772,18.772,0,0,1-4.6-.2,8.893,8.893,0,0,1-1.893-.562,10.018,10.018,0,0,1-3.87-2.292,7.976,7.976,0,0,1-2.018-9.767,6.035,6.035,0,0,1,1.359-2.243,10.938,10.938,0,0,1,2.484-2c.347-.161.653-.406.986-.6a15.726,15.726,0,0,1,4.854-1.526,11.884,11.884,0,0,1,3.365-.19,20.857,20.857,0,0,1,4.674.906,22.919,22.919,0,0,1,3.963,2.161c1.642,1.719,3.1,3.529,3.045,6.106m-13.658-2.69c-.083-1.019-.149-1.787-.207-2.555a.478.478,0,0,0-.451-.5,2.677,2.677,0,0,0-.573-.071c-1.452.13-2.9.279-4.354.415-.337.031-.481.174-.453.533.075.958.1,1.92.195,2.876a.83.83,0,0,0,.379.571,1,1,0,0,1,.575.837c.1.924.208,1.85.251,2.778a.636.636,0,0,1-.526.735c-.462.075-.544.393-.494.8.044.354.076.711.092,1.067.031.681.012,1.367.08,2.043.059.579.152.657.734.662.741.007,1.485-.026,2.224-.091.874-.077,1.744-.218,2.617-.307.283-.028.364-.14.374-.411.029-.768.095-1.536.13-2.3a3.469,3.469,0,0,0-.069-.569c-.05-.4-.18-.619-.676-.618a2.27,2.27,0,0,1-1.819-1,2.023,2.023,0,0,1-.179-.766,3.561,3.561,0,0,1,.6-.078c.621.022,1.243.112,1.863.1.907-.024,1.812-.122,2.717-.18.492-.033.547.017.585.453.055.64-.116.9-.753,1.082a5.49,5.49,0,0,1-.652.092c-.558.088-.658.173-.639.743.03.907.109,1.813.157,2.719.038.705.035.755.755.779.792.027,1.589-.031,2.382-.071a20.516,20.516,0,0,0,2.134-.16c1-.158,1.027-.417.829-1.12a4.2,4.2,0,0,1-.075-.57c-.106-.787-.232-1.573-.311-2.363a.658.658,0,0,0-.44-.615,1.084,1.084,0,0,1-.7-.942c-.046-.824-.05-1.651-.052-2.477,0-.526.129-1,.717-1.162.206-.058.229-.17.2-.366-.114-.926-.207-1.854-.311-2.781-.015-.137-.05-.271-.07-.407-.033-.233-.15-.324-.394-.3-1.64.162-3.281.313-4.921.472-.529.051-.586.15-.553.68.039.627.024,1.258.064,1.884a3.113,3.113,0,0,0,.2,1.2c.094.184.54.184.823.279a5.038,5.038,0,0,0,.616.233c.557.107.738.531.878.988.129.417.052.511-.425.524-.33.008-.662-.007-.991-.03a7.252,7.252,0,0,0-2.209.009,9.729,9.729,0,0,1-1.551.172c-.37.025-.442-.082-.359-.43a1.36,1.36,0,0,1,.932-.979,1.348,1.348,0,0,0,1.094-1.5" transform="translate(-39.979 -124.515)" fill="#e52e00"></path>
    <path id="Path_6155" data-name="Path 6155" d="M205.554,187.7c.131.147.268.28.381.43.84,1.123,1.657,2.264,2.518,3.372.941,1.212,1.932,2.386,2.882,3.592.6.757,1.148,1.547,1.73,2.314.4.525.805,1.044,1.226,1.551.134.161.159.258-.014.4-.106.084-.171.22-.276.305-1.948,1.572-3.891,3.148-5.851,4.7-1.333,1.058-2.691,2.086-4.039,3.125-.109.084-.236.145-.343.232-.251.2-.448.131-.634-.1-.838-1.022-1.65-2.067-2.528-3.053-.855-.961-1.769-1.869-2.674-2.785-.694-.7-1.423-1.371-2.121-2.07-.854-.855-1.678-1.742-2.547-2.581-.239-.231-.2-.348.01-.507.877-.664,1.753-1.329,2.636-1.984.728-.539,1.468-1.063,2.2-1.6.623-.451,1.247-.9,1.865-1.356.686-.506,1.359-1.031,2.052-1.528.468-.335.971-.621,1.438-.957.579-.415,1.135-.861,1.7-1.288a4,4,0,0,1,.383-.222" transform="translate(-66.812 -64.944)" fill="#e52e00"></path>
    <path id="Path_6156" data-name="Path 6156" d="M127.523,315.507c.087,1.12.183,2.239.256,3.359.037.577.022,1.157.048,1.734.035.768.091,1.536.131,2.3.025.486-.053.6-.525.651-.818.081-1.64.127-2.461.189q-2.467.183-4.934.37-1.889.145-3.779.3c-.712.056-1.425.115-2.136.188-.178.018-.326.067-.335-.195-.031-.959-.078-1.917-.1-2.875-.035-1.366-.056-2.73-.08-4.1-.023-1.231-.038-2.462-.065-3.693-.026-1.181-.043-2.364-.1-3.543-.022-.418.168-.532.514-.564,1.067-.1,2.134-.216,3.2-.31,1.124-.1,2.249-.182,3.375-.262.741-.053,1.484-.076,2.224-.137,1.2-.1,2.4-.22,3.6-.333.11-.01.218-.034.328-.039.6-.026.628.033.655.641.079,1.751.187,3.5.275,5.25.018.354,0,.709,0,1.063l-.088,0" transform="translate(-39.248 -106.757)" fill="#e52e00"></path>
    <path id="Path_6157" data-name="Path 6157" d="M47.026,295.976c-.471-.1-.85-.168-1.222-.263-.984-.249-1.958-.536-2.947-.761A26.471,26.471,0,0,0,36.6,294.6a.93.93,0,0,0-.327.026c-.088.035-.2.13-.208.2a.306.306,0,0,0,.169.243,9.51,9.51,0,0,0,1.206.232,33.781,33.781,0,0,1,5.914,1.045c.71.209,1.388.525,2.081.791.239.092.292.21.1.421-.537.592-1.072,1.186-1.591,1.795-1.571,1.845-3.142,3.691-4.692,5.552-.236.284-.351.322-.608.034-1.135-1.273-2.293-2.526-3.438-3.79-.813-.9-1.617-1.8-2.43-2.7-.589-.65-1.19-1.29-1.778-1.94-.384-.424-.381-.433-.029-.884.455-.583.923-1.156,1.373-1.744.817-1.067,1.608-2.154,2.437-3.211,1.117-1.425,2.268-2.824,3.388-4.246.508-.645.967-1.328,1.466-1.98.519-.676,1.076-1.324,1.583-2.008.218-.295.333-.173.489.022.614.772,1.218,1.553,1.847,2.313,1.432,1.734,2.877,3.457,4.316,5.186q1.055,1.267,2.1,2.536c.394.477.429.514.005.946-.785.8-1.61,1.566-2.438,2.325a1.492,1.492,0,0,1-.512.212" transform="translate(-10.624 -97.661)" fill="#e52e00"></path>
    <path id="Path_6158" data-name="Path 6158" d="M121.145,297.64c-1.935.19-3.87.388-5.806.566-.711.065-1.428.061-2.137.139-.292.032-.347-.111-.354-.3-.023-.6-.022-1.207-.029-1.81,0-.243.015-.487,0-.729-.056-.925-.131-1.849-.177-2.774-.017-.353.058-.71.042-1.063-.1-2.222-.207-4.442-.313-6.663,0-.028,0-.056-.005-.083-.073-.947-.075-.972.912-1.049,1.167-.091,2.339-.133,3.509-.2.931-.051,1.862-.1,2.793-.154,2.108-.113,4.215-.231,6.324-.332.5-.024.511.064.5.594-.019.953.012,1.907.023,2.861s0,1.931.037,2.895c.046,1.4.122,2.8.183,4.2.043,1.008.078,2.017.125,3.025.016.332-.077.483-.457.5-.988.052-1.973.151-2.958.249-.734.073-1.466.172-2.2.26,0-.045-.01-.09-.014-.135" transform="translate(-38.869 -97.981)" fill="#e52e00"></path>
    <path id="Path_6159" data-name="Path 6159" d="M222.289,207.745a1.866,1.866,0,0,0,.168.4c.49.661.98,1.321,1.49,1.968,1.362,1.729,2.735,3.449,4.1,5.174q1.046,1.319,2.09,2.641c.341.431.349.439-.024.8-.585.569-1.186,1.121-1.774,1.687-1.027.988-2.042,1.991-3.08,2.969-.539.508-1.122.967-1.676,1.459-1.146,1.018-2.285,2.045-3.432,3.063-.063.055-.105.314-.269.069-.379-.568-.738-1.152-1.156-1.69-.523-.671-1.1-1.3-1.649-1.95-.09-.1-.192-.2-.275-.309q-1.459-1.894-2.914-3.791c-.617-.8-1.241-1.6-1.862-2.394-.1-.131-.206-.259-.305-.392-.592-.788-.586-.81.2-1.405,1.376-1.039,2.806-2,4.1-3.149s2.731-2.2,4.1-3.3c.6-.481,1.178-.98,1.764-1.473.083-.069.16-.147.4-.371" transform="translate(-73.111 -71.88)" fill="#e52e00"></path>
    <path id="Path_6160" data-name="Path 6160" d="M225.623,173.742a1.764,1.764,0,0,1,.2.171c.841.98,1.676,1.966,2.522,2.942.449.518.937,1,1.373,1.531,1.259,1.524,2.5,3.063,3.747,4.6.035.043.061.091.093.137.421.612.44.633-.093,1.116-1.2,1.089-2.425,2.152-3.634,3.232-.7.623-1.368,1.275-2.073,1.89-.952.831-1.926,1.638-2.887,2.458-.314.268-.622.543-.927.821-.385.351-.441.354-.774-.067-.819-1.035-1.62-2.086-2.449-3.112-.776-.962-1.589-1.894-2.369-2.854-.813-1-1.591-2.029-2.411-3.023-.43-.52-.91-1-1.385-1.479-.191-.193-.158-.316.039-.456.8-.568,1.612-1.129,2.4-1.713.729-.538,1.426-1.12,2.161-1.65.533-.386,1.112-.707,1.653-1.081.36-.249.683-.551,1.036-.811.664-.487,1.335-.963,2.008-1.438.493-.348.993-.685,1.491-1.027.089-.061.18-.121.273-.183" transform="translate(-74.193 -60.115)" fill="#e52e00"></path>
    <path id="Path_6161" data-name="Path 6161" d="M194.8,248.9a1.732,1.732,0,0,0-.306.151c-.56.433-1.109.882-1.674,1.309-.478.362-.965.714-1.461,1.05-1.332.9-2.663,1.81-4.014,2.685a17.907,17.907,0,0,1-2.141,1.216,6.98,6.98,0,0,1-1.428.337c-.215.048-.432.087-.642.15-.679.2-.7.214-.916-.484-.556-1.758-1.137-3.51-1.627-5.287a51.282,51.282,0,0,0-1.927-5.437c-.409-1.022-.839-2.035-1.271-3.047-.092-.214-.09-.349.14-.466q.948-.489,1.879-1.007c.428-.239.841-.5,1.26-.76,1.638-1,3.279-1.986,4.908-2.993.207-.128.295-.133.437.074q1.772,2.578,3.566,5.141c.6.856,1.236,1.687,1.842,2.539a19.34,19.34,0,0,1,2.062,2.97,9.264,9.264,0,0,0,1,1.41c.078.108.154.218.315.447" transform="translate(-61.358 -81.736)" fill="#e52e00"></path>
    <path id="Path_6162" data-name="Path 6162" d="M203.2,223.417c.093.106.17.182.235.267q.723.948,1.442,1.9c.527.7,1.058,1.391,1.579,2.093.23.309.413.652.659.946.951,1.139,1.973,2.224,2.861,3.41.612.817,1.262,1.589,1.941,2.345.364.4.32.422-.139.783a8.82,8.82,0,0,0-.787.73,29.586,29.586,0,0,1-3.309,2.785c-.9.672-1.728,1.443-2.607,2.144-.854.68-1.731,1.332-2.609,1.98a.356.356,0,0,1-.334-.06,4.687,4.687,0,0,1-1.019-1.378,8.3,8.3,0,0,0-1-1.5c-1.015-1.366-2.063-2.708-3.065-4.082-1.053-1.443-2.064-2.916-3.1-4.372-.7-.987-.7-.974.275-1.639,1.2-.821,2.376-1.668,3.573-2.489s2.415-1.608,3.6-2.435c.424-.295.791-.67,1.192-1,.188-.152.395-.279.612-.431" transform="translate(-66.933 -77.302)" fill="#e52e00"></path>
    <path id="Path_6163" data-name="Path 6163" d="M114.516,346.849q-.08-2.457-.162-4.915-.077-2.268-.158-4.537c-.006-.165-.015-.33-.008-.494a.432.432,0,0,1,.462-.464c1.151-.082,2.3-.175,3.451-.269.657-.054,1.313-.12,1.971-.178,1.831-.161,3.663-.315,5.494-.483.821-.075,1.641-.162,2.457-.271.264-.036.33.018.34.285.067,1.728.143,3.455.237,5.182.1,1.842.221,3.682.336,5.523.029.464.082.927.1,1.391a.341.341,0,0,1-.205.257c-.489.08-.981.135-1.474.184-1.968.192-3.933.447-5.906.544-1.643.08-3.271.3-4.909.4-.515.033-1.034.015-1.549.05-.37.025-.415-.222-.423-.471-.018-.577-.005-1.156-.005-1.734h-.043" transform="translate(-39.508 -115.989)" fill="#e52e00"></path>
    <path id="Path_6164" data-name="Path 6164" d="M69.073,315.108a2.382,2.382,0,0,1,1.4.322,4.33,4.33,0,0,1,1.544,1.037,2.9,2.9,0,0,1,.543.721c.424,1.1.819,2.21,1.193,3.328a6.115,6.115,0,0,1,.273,1.291,15.174,15.174,0,0,1-.267,4.329,16.409,16.409,0,0,1-1,3.126,12.138,12.138,0,0,1-2.1,3.228,3.707,3.707,0,0,1-3.834.831,4.034,4.034,0,0,1-.8-.568,1.254,1.254,0,0,0-1.287-.306,3.182,3.182,0,0,1-.975.122.637.637,0,0,1-.418-.165q-1.587-1.566-3.151-3.155c-.347-.352-.668-.729-1-1.091-.184-.2-.151-.349.009-.57,1.131-1.557,2.259-3.118,3.355-4.7.75-1.084,1.435-2.213,2.173-3.3.769-1.137,1.545-2.269,2.361-3.371.5-.676,1.093-1.27,1.993-1.1" transform="translate(-20.434 -109.017)" fill="#e52e00"></path>
    <path id="Path_6165" data-name="Path 6165" d="M196.066,214.534a4.39,4.39,0,0,1-.375.343c-.848.61-1.7,1.209-2.549,1.821-1.111.8-2.207,1.627-3.325,2.42-.985.7-1.984,1.381-2.988,2.053-.492.33-.589.311-.958-.128-.266-.316-.5-.656-.747-.99-.984-1.354-1.951-2.721-2.957-4.059-.428-.57-.94-1.078-1.407-1.62-1.095-1.273-2.178-2.555-3.279-3.823-.788-.907-.8-.906.172-1.589,1.531-1.072,3.08-2.12,4.6-3.2,1.052-.748,2.075-1.537,3.111-2.308.044-.033.086-.069.132-.1.717-.472.763-.446,1.3.234.967,1.235,1.933,2.473,2.95,3.666.712.835,1.535,1.575,2.26,2.4,1.284,1.462,2.534,2.955,3.793,4.44a3.459,3.459,0,0,1,.267.441" transform="translate(-61.209 -70.249)" fill="#e52e00"></path>
    <path id="Path_6166" data-name="Path 6166" d="M57.235,263.248c.116.107.2.174.271.253q.961,1.081,1.918,2.166c.472.532.95,1.059,1.415,1.6q1.649,1.9,3.283,3.82a.6.6,0,0,1,.157.423,20.753,20.753,0,0,1-.415,2.761,24.758,24.758,0,0,1-1,3.56c-.44.852-.89,1.7-1.39,2.519s-1.041,1.619-1.612,2.392c-.506.685-1.081,1.318-1.617,1.982-.158.2-.258.127-.379-.029-.967-1.234-1.923-2.476-2.908-3.7-1.294-1.6-2.614-3.186-3.916-4.783-.538-.659-1.05-1.34-1.593-1.995a.55.55,0,0,1-.005-.84c.98-1.187,1.92-2.407,2.875-3.615a.693.693,0,0,0,.052-.065,26.061,26.061,0,0,1,2.088-2.757c.869-1.1,1.676-2.246,2.511-3.371.077-.1.166-.2.269-.322" transform="translate(-17.04 -91.084)" fill="#e52e00"></path>
    <path id="Path_6167" data-name="Path 6167" d="M31.625,315.108a3.412,3.412,0,0,1-.237.362c-.842.983-1.7,1.954-2.531,2.944-.513.61-.987,1.254-1.5,1.868q-1.5,1.81-3.025,3.6c-.257.3-.515.738-.84.811-.3.067-.7-.26-1.04-.43-1.18-.586-2.4-1.114-3.523-1.788-1.317-.787-2.552-1.708-3.829-2.563-.434-.29-.909-.524-1.324-.839-.448-.34-.42-.381-.066-.829.884-1.122,1.747-2.26,2.642-3.373.669-.833,1.373-1.636,2.061-2.452.035-.043.073-.083.1-.128a22.6,22.6,0,0,1,1.893-2.579c.927-.959,1.49-2.177,2.411-3.12.81-.831.628-.722,1.3-.025.933.972,1.8,2.005,2.7,3.008q1.763,1.962,3.531,3.919.549.613,1.08,1.244a1.8,1.8,0,0,1,.186.367" transform="translate(-4.653 -105.879)" fill="#e52e00"></path>
    <path id="Path_6168" data-name="Path 6168" d="M241.064,191.463a2.625,2.625,0,0,1,.3.241,36.3,36.3,0,0,1,3.568,4.31,4.657,4.657,0,0,0,.581.7,17.818,17.818,0,0,1,2.039,2.459,8.937,8.937,0,0,0,.883.963c.209.222.19.4-.022.635-.867.951-1.7,1.933-2.571,2.88-.81.882-1.662,1.725-2.477,2.6s-1.59,1.8-2.42,2.662c-.644.672-1.345,1.288-2.015,1.936-.165.159-.232.025-.315-.079q-1.617-2.031-3.233-4.063c-1.458-1.827-2.911-3.657-4.386-5.469-.218-.268-.251-.453-.024-.7a4.387,4.387,0,0,1,.309-.385c1.269-1.09,2.561-2.154,3.813-3.263,1.184-1.049,2.33-2.141,3.489-3.217.7-.651,1.392-1.314,2.093-1.965a2.647,2.647,0,0,1,.392-.246" transform="translate(-79.861 -66.246)" fill="#e52e00"></path>
    <path id="Path_6169" data-name="Path 6169" d="M148.476,310.382c.073,2.283.121,4.1.194,5.913.041,1.015.131,2.027.187,3.042.044.792.069,1.585.109,2.378.012.241-.078.339-.328.354-.576.034-1.148.1-1.723.147q-2.219.175-4.439.342c-1.233.093-2.466.177-3.7.274-.209.016-.319-.054-.329-.256-.039-.792-.065-1.584-.107-2.375-.05-.931-.1-1.861-.171-2.791a23.039,23.039,0,0,1-.137-2.454c.029-.986-.108-1.978-.16-2.967-.057-1.1-.1-2.2-.147-3.3-.01-.264-.111-.653.019-.764a1.293,1.293,0,0,1,.856-.205c2.069.135,4.089-.388,6.148-.411A28.77,28.77,0,0,0,147.78,307c.382-.044.538.062.55.481.03,1.125.111,2.248.146,2.9" transform="translate(-47.637 -106.217)" fill="#e52e00"></path>
    <path id="Path_6170" data-name="Path 6170" d="M95.832,350.086c-1.7.071-3.4.21-5.106.192-1.317-.014-2.635.029-3.95-.016-1.4-.048-2.795-.2-4.193-.275a4.888,4.888,0,0,1-2.253-.708,1.2,1.2,0,0,1-.02-2.06,3.324,3.324,0,0,1,1.237-.417c.362-.05.785-.018.852.542.014.127.241.288.4.327a7.371,7.371,0,0,0,.822.066.7.7,0,0,0,.872-.526c.154-.468.583-.7.995-.942a10.441,10.441,0,0,1,2.89-.884c1.005-.26,2.025-.464,3.042-.683.322-.069.278-.3.245-.512-.079-.515-.185-1.027-.262-1.542a4.443,4.443,0,0,1-.077-1.8,2.515,2.515,0,0,0-.138-.887c-.073-.462-.126-.928-.207-1.388-.054-.308.013-.452.362-.473,1.558-.1,3.116-.211,4.672-.332,1.039-.081,2.076-.186,3.115-.279.164-.014.33-.009.494-.023.344-.029.474.1.48.467.034,1.815.092,3.631.158,5.447a10.111,10.111,0,0,1,.122,1.4c-.119,1.1.128,2.185.067,3.28a8.158,8.158,0,0,0,.079,1.316c.054.515.026.593-.482.623-1.4.083-2.8.144-4.2.213,0-.04,0-.08-.005-.12" transform="translate(-27.587 -116.761)" fill="#e52e00"></path>
    <path id="Path_6171" data-name="Path 6171" d="M147,283.424c.049.825.109,1.645.144,2.466.08,1.863.142,3.727.226,5.59.056,1.237.137,2.472.2,3.709.007.135-.018.273-.01.409.014.231-.052.327-.315.344-.931.062-1.858.182-2.789.237-1.674.1-3.35.148-5.023.252-.709.044-1.413.171-2.12.26-.416.052-.47-.006-.5-.421-.162-2.133-.336-4.265-.5-6.4-.131-1.755-.245-3.511-.373-5.267-.033-.46-.105-.918-.135-1.378-.035-.522.042-.621.545-.721a3.753,3.753,0,0,1,.816-.093,14.312,14.312,0,0,0,1.959-.137c.636-.07,1.3,0,1.957-.069,1.723-.169,3.452-.275,5.179-.4.562-.041.678.053.728.625.029.328.005.661.005.989" transform="translate(-46.989 -97.503)" fill="#e52e00"></path>
    <path id="Path_6172" data-name="Path 6172" d="M42.617,267c-.08-.1-.146-.184-.218-.265q-.574-.648-1.15-1.294a4.506,4.506,0,0,1-.328-.371c-1.226-1.728-2.711-3.235-4.089-4.833-.684-.791-1.4-1.551-2.116-2.316-.156-.167-.2-.262,0-.445.848-.774,1.679-1.567,2.511-2.358,1.092-1.039,2.175-2.087,3.271-3.121.26-.245.566-.439.834-.675.907-.8,1.806-1.6,2.71-2.4.1-.091.224-.163.322-.259.186-.184.309-.139.453.064q2.662,3.768,5.668,7.268c.105.122.152.3.258.417.2.229.167.388-.028.625-1.068,1.288-2.117,2.591-3.161,3.9-.566.71-1.1,1.446-1.666,2.154-1.015,1.265-2.044,2.519-3.071,3.775a.974.974,0,0,1-.2.141" transform="translate(-11.965 -85.996)" fill="#e52e00"></path>
    <path id="Path_6173" data-name="Path 6173" d="M248.837,156.24c1.142.1,2.284.285,3.424.27a13.23,13.23,0,0,0,4.423-.905c.27-.1.672-.241.57-.589-.109-.368-.522-.2-.8-.167a14.46,14.46,0,0,1-6.044-.218c-.734-.218-1.477-.407-2.214-.619a1.451,1.451,0,0,1-.45-.2,7.173,7.173,0,0,1-.549-.49,6.536,6.536,0,0,1,.585-.337,27.625,27.625,0,0,0,4.144-2.186c.727-.488,1.438-1,2.193-1.443.852-.5,1.747-.92,2.62-1.38a.33.33,0,0,1,.5.1c.077.114.186.206.262.32.843,1.252,1.694,2.5,2.52,3.764.782,1.195,1.537,2.407,2.3,3.613a.718.718,0,0,1-.015,1,45.3,45.3,0,0,1-3.718,4.2c-.4.378-.72.829-1.1,1.229q-1.356,1.448-2.73,2.878c-.361.377-.389.382-.794.033-.562-.485-1.1-1-1.659-1.488-1.166-1.006-2.307-2.046-3.525-2.984-1.037-.8-2.161-1.488-3.267-2.194-.235-.15-.08-.214,0-.271.865-.634,1.729-1.273,2.617-1.876a2.118,2.118,0,0,1,.7-.17l.008.111" transform="translate(-84.905 -51.175)" fill="#e52e00"></path>
    <path id="Path_6174" data-name="Path 6174" d="M165.274,294.924c-1.953.04-3.905.071-5.857.125-.795.022-1.59.071-2.381.149-.342.034-.447-.1-.474-.394-.023-.247-.067-.492-.077-.739-.056-1.317-.1-2.635-.156-3.952-.069-1.751-.129-3.5-.212-5.254q-.078-1.65-.22-3.3c-.025-.287.056-.414.316-.466a4.15,4.15,0,0,1,.482-.1c2.243-.182,4.488-.351,6.73-.543.765-.066,1.523-.211,2.288-.282.6-.056.636-.009.734.6a1.032,1.032,0,0,1,.013.329,18.939,18.939,0,0,0,.063,2.857,2.98,2.98,0,0,0,.019.578,16.53,16.53,0,0,1-.037,3.45,5.7,5.7,0,0,0,.05.73c.037.353.089.7.128,1.055a11.573,11.573,0,0,1,.143,1.472c-.016.8-.1,1.59-.163,2.385-.025.326-.094.653-.088.978s-.112.364-.4.317a8.185,8.185,0,0,0-.906-.052c0,.018,0,.037,0,.055" transform="translate(-53.939 -96.933)" fill="#e52e00"></path>
    <path id="Path_6175" data-name="Path 6175" d="M61.417,311.135a1.14,1.14,0,0,1-.066.177c-.245.394-.485.791-.744,1.177-.275.41-.569.807-.851,1.213-.895,1.284-1.8,2.562-2.677,3.858-1.018,1.5-2.008,3.025-3.02,4.532-.259.386-.551.751-.836,1.118-.162.209-.283.048-.392-.069-.69-.748-1.369-1.506-2.066-2.248-1.033-1.1-2.091-2.179-3.112-3.292-.741-.806-1.437-1.654-2.16-2.479a.41.41,0,0,1-.034-.591c.307-.384.623-.763.923-1.152,1.239-1.608,2.493-3.2,3.7-4.833.6-.812,1.137-1.678,1.679-2.535.124-.2.2-.175.381-.1.732.308,1.483.572,2.208.893a3.023,3.023,0,0,1,1.312.914,6.505,6.505,0,0,0,1.55,1.205.672.672,0,0,0,.537.1.851.851,0,0,1,.854.145c.542.369,1.06.773,1.6,1.146.246.171.525.294.776.457a4.576,4.576,0,0,1,.434.361" transform="translate(-15.691 -105.827)" fill="#e52e00"></path>
    <path id="Path_6176" data-name="Path 6176" d="M104.493,286.557c0,.957-.01,1.914,0,2.871q.041,3.5.1,6.995c.014.712.068,1.424.122,2.135.024.32-.084.426-.411.446-1.918.114-3.834.247-5.751.384-.927.065-1.851.158-2.778.22a.329.329,0,0,1-.26-.182c-.116-.677-.228-1.356-.3-2.039-.121-1.177-.217-2.357-.309-3.537-.039-.49-.039-.983-.058-1.475q-.115-2.93-.228-5.86c0-.082,0-.165,0-.248-.063-1.313-.063-1.289,1.219-1.3.849-.006,1.7-.1,2.546-.138.411-.019.827.019,1.238-.008.9-.06,1.807-.148,2.711-.216.572-.043,1.146-.057,1.717-.1.322-.027.366.151.365.4,0,.551,0,1.1,0,1.654h.073" transform="translate(-32.733 -98.437)" fill="#e52e00"></path>
    <path id="Path_6177" data-name="Path 6177" d="M96.375,321.68c-.134-1.536-.3-3.069-.392-4.607-.081-1.428-.075-2.861-.1-4.292-.008-.411,0-.824,0-1.236a.406.406,0,0,1,.452-.459c.246-.007.489-.084.736-.1,1.389-.094,2.779-.166,4.167-.271q1.726-.13,3.447-.322c.345-.038.5.008.508.4.027,1.481.084,2.962.13,4.443.027.85.067,1.7.078,2.55s-.024,1.688-.005,2.531c.018.822.077,1.643.125,2.464.041.68.085,1.359.141,2.038.033.4-.106.606-.537.634a16.9,16.9,0,0,1-2.035.15,13.315,13.315,0,0,0-2.131.162c-1.255.134-2.507.3-3.762.424-.693.069-.719.025-.756-.705-.065-1.265-.123-2.53-.183-3.794l.122-.009" transform="translate(-33.173 -107.392)" fill="#e52e00"></path>
    <path id="Path_6178" data-name="Path 6178" d="M252.591,140.127a2.683,2.683,0,0,1-.374.314c-1.071.606-2.159,1.184-3.217,1.812a10.422,10.422,0,0,0-1.313.983,17.076,17.076,0,0,1-3.076,1.9c-.608.319-1.208.656-1.783,1.028-.327.211-.482.173-.73-.135-.477-.593-1.039-1.115-1.545-1.685a16.734,16.734,0,0,1-1.931-2.33c-.37-.607-.872-1.132-1.3-1.7-.476-.637-.94-1.284-1.4-1.933-.168-.237-.168-.413.145-.586,1.226-.68,2.437-1.388,3.647-2.1.473-.277.922-.594,1.4-.868a57.236,57.236,0,0,0,4.965-3.226c.638-.463.8-.417,1.216.24,1.107,1.736,2.228,3.463,3.343,5.193q.869,1.351,1.736,2.7c.071.112.132.23.222.387" transform="translate(-81.59 -45.428)" fill="#e52e00"></path>
    <path id="Path_6179" data-name="Path 6179" d="M237.293,115.7a1.768,1.768,0,0,0,.119.25c.565.878,1.139,1.749,1.7,2.629A40.419,40.419,0,0,0,242,123.062a3.753,3.753,0,0,1,.241.43c.129.2.084.332-.116.472q-2.61,1.814-5.208,3.645-1.313.928-2.6,1.891c-.789.593-1.559,1.212-2.334,1.823-.213.168-.295-.01-.376-.14-.335-.538-.67-1.077-.985-1.627-.655-1.145-1.328-2.28-1.934-3.451-.593-1.148-1.114-2.333-1.662-3.5-.161-.345-.492-.747-.413-1.027s.563-.469.9-.642c1.317-.681,2.655-1.322,3.967-2.013a11.263,11.263,0,0,0,3.063-2.008,2.059,2.059,0,0,1,.707-.407c.559-.231,1.129-.432,1.695-.647.077-.029.15-.065.354-.156" transform="translate(-78.402 -40.033)" fill="#e52e00"></path>
    <path id="Path_6180" data-name="Path 6180" d="M139.571,344.908c-.113-1.695-.229-3.388-.336-5.083-.024-.385-.013-.772-.033-1.158-.061-1.182-.13-2.363-.2-3.545-.028-.506.028-.633.508-.641,1.183-.019,2.32-.393,3.519-.356a21.637,21.637,0,0,0,2.7-.279c1.093-.106,2.188-.189,3.283-.284.256-.022.43.058.468.335.035.245.09.488.1.733.1,1.783.2,3.566.279,5.349.034.734.016,1.47.051,2.2a16.368,16.368,0,0,0,.254,3.347.33.33,0,0,1-.144.282.862.862,0,0,1-.479.106,11.231,11.231,0,0,0-2.92.4c-.952.094-1.89.313-2.84.432-1.2.15-2.405.248-3.607.383-.393.045-.53-.082-.533-.49,0-.576-.084-1.151-.131-1.727l.051,0" transform="translate(-48.094 -115.411)" fill="#e52e00"></path>
    <path id="Path_6181" data-name="Path 6181" d="M155.237,268.793c-.065-.959-.132-1.918-.194-2.878-.114-1.78-.222-3.56-.341-5.34-.031-.467-.084-.933-.138-1.4-.028-.239.048-.361.3-.376.385-.022.767-.064,1.151-.094q3.734-.287,7.467-.574a1.718,1.718,0,0,0,.409-.052c.222-.075.433-.179.648-.271.026.245.044.491.079.735a10.931,10.931,0,0,1,.324,2.992,2.484,2.484,0,0,0,.083.9,16.394,16.394,0,0,1,.392,3.589c.027.877.17,1.751.245,2.627.052.6.069,1.206.114,1.808.027.368-.146.47-.489.47-1.152,0-2.3.006-3.455.041-1.51.045-3.02.122-4.529.182-.546.022-1.092.05-1.638.039a.428.428,0,0,1-.32-.26c-.079-.71-.118-1.424-.171-2.137l.063,0" transform="translate(-53.477 -89.202)" fill="#e52e00"></path>
    <path id="Path_6182" data-name="Path 6182" d="M65.172,253.456c.069,1.365.159,2.729.2,4.095.019.678-.047,1.36-.092,2.039-.016.253-.156.258-.311.09-.43-.466-.878-.918-1.279-1.407a46.025,46.025,0,0,0-3.006-3.488c-.445-.443-.79-.984-1.2-1.46-.187-.216-.046-.362.057-.507.558-.782,1.133-1.551,1.691-2.334.431-.6.848-1.221,1.262-1.837a.951.951,0,0,0,.206-.443.788.788,0,0,0-.154-.571.634.634,0,0,0-.585-.009,3.655,3.655,0,0,0-.8.706c-.76.87-1.5,1.761-2.245,2.643-.178.21-.363.414-.542.623-.2.232-.345.168-.526-.042q-1.133-1.307-2.294-2.591-.717-.795-1.468-1.559-1.247-1.265-2.517-2.5c-.228-.224-.266-.4.03-.585a21.149,21.149,0,0,1,2.859-1.787c.957-.411,1.661-1.141,2.549-1.627.78-.426,1.61-.69,2.4-1.054a12.6,12.6,0,0,1,1.339-.411.536.536,0,0,1,.742.305c.554,1.1,1.177,2.158,1.644,3.311a36.614,36.614,0,0,1,1.26,4.056,16.371,16.371,0,0,1,.543,3.982,7.3,7.3,0,0,0,.146.98c.075.458.152.915.229,1.373l-.134.014" transform="translate(-17.777 -82.828)" fill="#e52e00"></path>
    <path id="Path_6183" data-name="Path 6183" d="M104.166,267.749c0,1.9-.012,3.8.01,5.7,0,.393-.1.54-.494.551-.7.02-1.405.092-2.108.128-1.56.08-3.121.141-4.68.232-.6.035-1.2.117-1.793.206s-.672.065-.737-.521a11.739,11.739,0,0,1-.095-2.376,18.365,18.365,0,0,0-.181-2.459c-.051-1.035-.052-2.073-.078-3.108-.017-.712-.048-1.424-.058-2.137-.007-.55.02-1.1.01-1.651-.007-.393.173-.519.55-.533,1.317-.048,2.634-.118,3.951-.188.9-.048,1.8-.13,2.7-.16.847-.029,1.7.006,2.543-.017.359-.009.483.108.477.469-.02,1.323-.018,2.647-.023,3.97,0,.632,0,1.266,0,1.9Z" transform="translate(-32.507 -90.448)" fill="#e52e00"></path>
    <path id="Path_6184" data-name="Path 6184" d="M271.416,129.419a1.971,1.971,0,0,1-.217.214,10.787,10.787,0,0,1-1.078.763c-1.315.734-2.654,1.426-3.968,2.163-.861.482-1.7,1-2.539,1.524-.629.39-1.244.8-1.863,1.208-.242.158-.391.074-.54-.15-.379-.574-.795-1.124-1.168-1.7-.866-1.338-1.711-2.689-2.573-4.029q-.847-1.317-1.719-2.616c-.209-.311-.113-.456.182-.642,1.409-.884,2.8-1.793,4.2-2.694.16-.1.315-.215.471-.323.945-.657,1.918-1.277,2.827-1.979,1.384-1.068,1.067-1.03,2.037.186,1.079,1.351,2.029,2.8,3.052,4.2.876,1.2,1.776,2.377,2.664,3.565.065.087.13.175.232.313" transform="translate(-88.45 -41.655)" fill="#e52e00"></path>
    <path id="Path_6185" data-name="Path 6185" d="M171.861,214.412c.045.078.085.157.133.23.574.87,1.124,1.757,1.729,2.606.763,1.071,1.564,2.114,2.357,3.163.959,1.27,1.938,2.525,2.887,3.8.506.681.961,1.4,1.452,2.092.165.233.142.362-.108.519a73.556,73.556,0,0,1-7.076,4.191l-.148.073c-.8.392-.8.39-1.2-.424-.645-1.309-1.286-2.62-1.948-3.92-.721-1.417-1.463-2.825-2.2-4.232-.1-.192-.256-.355-.371-.54q-.719-1.151-1.428-2.307c-.159-.258-.037-.454.136-.663a10.852,10.852,0,0,1,1.979-1.838q1.665-1.22,3.328-2.442c.133-.1.276-.18.479-.311" transform="translate(-57.389 -74.186)" fill="#e52e00"></path>
    <path id="Path_6186" data-name="Path 6186" d="M159.478,321.155c-.33.024-.66.039-.988.072-.544.056-.649-.016-.676-.521-.048-.878-.082-1.757-.132-2.636-.1-1.7-.2-3.4-.3-5.1q-.153-2.76-.29-5.522a3.032,3.032,0,0,1,.023-1.218c.187-.457.742-.18,1.122-.293a3.445,3.445,0,0,1,.646-.106c1.78-.181,3.56-.345,5.338-.542.625-.069,1.242-.212,1.863-.323.466-.084.578.022.474.453-.192.8-.381,1.592-.579,2.386-.553,2.2-1.145,4.4-1.651,6.613a28.454,28.454,0,0,1-.972,3.488c-.318.871-.507,1.791-.747,2.69-.06.224-.116.407-.411.422-.907.045-1.813.114-2.719.173,0-.013,0-.025,0-.039" transform="translate(-54.336 -105.51)" fill="#e52e00"></path>
    <path id="Path_6187" data-name="Path 6187" d="M256.56,194.362a5.464,5.464,0,0,1-.414-.407c-.7-.846-1.406-1.693-2.1-2.551-.827-1.029-1.625-2.085-2.467-3.1-.576-.7-1.208-1.345-1.813-2.017-.129-.142-.248-.293-.376-.437-.225-.254-.2-.417.072-.672.862-.8,1.673-1.662,2.508-2.493,1.124-1.12,2.26-2.226,3.37-3.358.222-.227.346-.166.534,0,.718.636,1.458,1.246,2.161,1.9.579.537,1.109,1.126,1.673,1.68.585.574,1.182,1.136,1.782,1.7.418.389.848.765,1.275,1.145a.373.373,0,0,1,.073.574c-.18.243-.325.511-.507.753-.853,1.133-1.706,2.267-2.576,3.387-.267.344-.614.626-.885.968-.678.857-1.333,1.735-2,2.6-.082.107-.184.2-.315.334" transform="translate(-86.237 -61.995)" fill="#e52e00"></path>
    <path id="Path_6188" data-name="Path 6188" d="M242.221,178.9a2.5,2.5,0,0,1-.281-.242c-.337-.4-.664-.806-1-1.2-.64-.758-1.264-1.53-1.933-2.263-.61-.669-1.269-1.294-1.908-1.936-.058-.059-.135-.1-.186-.164a30.6,30.6,0,0,0-3.339-3.071c-.336-.3-.332-.348.031-.6q2.528-1.786,5.059-3.571c.629-.443,1.26-.88,1.891-1.318.13-.09.294-.251.307.073a2.672,2.672,0,0,0,1.09,1.781c.672.651,1.409,1.235,2.094,1.874,1.264,1.178,2.51,2.375,3.763,3.564.238.226.484.445.71.683.18.189.164.362-.044.56-1.155,1.1-2.289,2.216-3.443,3.314-.8.756-1.61,1.492-2.42,2.233-.118.108-.257.194-.39.293" transform="translate(-80.731 -56.884)" fill="#e52e00"></path>
    <path id="Path_6189" data-name="Path 6189" d="M259.785,112.9a1.433,1.433,0,0,1-.158.179,50.171,50.171,0,0,1-5.731,3.871c-.967.564-1.884,1.22-2.806,1.858-.334.231-.429.082-.6-.2-.327-.538-.729-1.029-1.071-1.558-.731-1.133-1.437-2.281-2.166-3.416-.519-.808-1.048-1.611-1.6-2.4-.205-.3-.124-.458.171-.551a1.469,1.469,0,0,0,.84-.627.788.788,0,0,1,.249-.213c.761-.483,1.554-.919,2.278-1.45.836-.615,1.6-1.322,2.417-1.969.6-.478,1.23-.917,1.838-1.387.216-.167.354-.067.484.091s.26.356.394.531c.417.543.84,1.081,1.254,1.627.165.219.313.452.463.683.133.209.239.438.389.633q1.534,1.986,3.081,3.959c.084.109.172.214.271.335" transform="translate(-84.958 -36.316)" fill="#e52e00"></path>
    <path id="Path_6190" data-name="Path 6190" d="M228.954,101.31a.884.884,0,0,1,.2.119,2.3,2.3,0,0,1,.321.376c1.025,1.658,2.04,3.322,3.067,4.978.318.512.664,1.006,1,1.509.184.279.195.477-.18.63a14.653,14.653,0,0,0-1.311.662,11.522,11.522,0,0,0-1.9,1.432,12.7,12.7,0,0,1-1.649,1.073,24.515,24.515,0,0,0-3.816,2.428c-.852.748-.921.743-1.349-.28-.477-1.141-.885-2.311-1.316-3.47-.469-1.26-.938-2.52-1.389-3.787a10.051,10.051,0,0,1-.367-1.352.431.431,0,0,1,.222-.339c1.184-.511,2.386-.98,3.564-1.5a13.1,13.1,0,0,0,2.28-1.114,13.751,13.751,0,0,1,1.931-.912,6.753,6.753,0,0,0,.7-.449" transform="translate(-76.209 -35.053)" fill="#e52e00"></path>
    <path id="Path_6191" data-name="Path 6191" d="M44.367,334.818a9.626,9.626,0,0,1-1.219-.218,33.247,33.247,0,0,1-3.834-.937,18.066,18.066,0,0,0-1.821-.481c-1.2-.384-2.383-.81-3.575-1.214-.389-.132-.789-.233-1.174-.373-.457-.167-.5-.3-.2-.69.264-.35.581-.66.851-1.005.456-.583.889-1.184,1.34-1.772.753-.981,1.5-1.964,2.271-2.932.717-.9,1.464-1.781,2.183-2.683.218-.273.364-.234.576,0a20,20,0,0,0,1.795,1.928c.838.724,1.305,1.752,2.2,2.434a11.4,11.4,0,0,1,1.477,1.655c.635.723,1.26,1.455,1.921,2.153a.424.424,0,0,1,.056.631c-.663,1.011-1.322,2.024-1.96,3.05a.8.8,0,0,1-.884.45" transform="translate(-11.193 -111.523)" fill="#e52e00"></path>
    <path id="Path_6192" data-name="Path 6192" d="M273.782,170.542a3.434,3.434,0,0,1-.161.317q-1.619,2.48-3.239,4.958c-.315.485-.6.99-.921,1.469-.275.408-.586.791-.876,1.189-.143.195-.266.124-.4-.007-1.014-.968-2.031-1.931-3.043-2.9-.7-.668-1.372-1.355-2.077-2.012-.539-.5-1.1-.98-1.67-1.443-.219-.177-.083-.247.025-.368.588-.65,1.182-1.295,1.757-1.956q2.38-2.735,4.747-5.482c.144-.166.3-.323.443-.489.2-.224.386-.452.58-.679a6.1,6.1,0,0,1,.706.77c.4.62.745,1.282,1.141,1.908.543.858,1.114,1.7,1.672,2.548.318.483.641.961.946,1.452.144.23.251.484.373.725" transform="translate(-90.401 -56.446)" fill="#e52e00"></path>
    <path id="Path_6193" data-name="Path 6193" d="M285.275,147.422a3.042,3.042,0,0,1-.2.59,5.832,5.832,0,0,0-.6,1.865,26.527,26.527,0,0,1-2.347,6.473c-.616,1.22-1.133,2.492-1.7,3.74a1.941,1.941,0,0,1-.19.366c-.138.186-.3.356-.447.534-.13-.173-.271-.339-.389-.521q-1-1.553-1.993-3.112c-.7-1.089-1.383-2.182-2.087-3.265-.116-.179-.067-.275.037-.424,1.112-1.6,2.226-3.2,3.32-4.813a24.86,24.86,0,0,0,2.6-5.042,14.847,14.847,0,0,0,.408-1.593.732.732,0,0,1,.138-.2,1.59,1.59,0,0,1,.173.158c.173.21.355.415.508.639.8,1.179,1.616,2.353,2.387,3.554a4.783,4.783,0,0,1,.38,1.054" transform="translate(-95.239 -49.138)" fill="#e52e00"></path>
    <path id="Path_6194" data-name="Path 6194" d="M244.623,92.887c.1.123.2.222.277.329q1.295,1.71,2.587,3.42c.4.525.819,1.035,1.207,1.568.315.436.287.457-.113.783-.661.538-1.295,1.11-1.965,1.636-.646.507-1.321.975-1.985,1.458-1.105.8-2.231,1.583-3.305,2.426-.34.267-.4.154-.581-.121-.928-1.427-1.878-2.839-2.817-4.26-.468-.708-.944-1.411-1.384-2.137-.283-.466-.245-.46.209-.7,1.259-.659,2.508-1.336,3.759-2.011,1.061-.572,2.122-1.145,3.176-1.73a8.4,8.4,0,0,0,.737-.509c.061-.043.117-.092.2-.156" transform="translate(-81.782 -32.139)" fill="#e52e00"></path>
    <path id="Path_6195" data-name="Path 6195" d="M278.056,139.753c-.165.479-.325,1.03-.543,1.558a31.449,31.449,0,0,1-3.977,6.716c-.672.9-1.332,1.815-1.994,2.725-.141.192-.222.157-.344-.033-.357-.555-.754-1.084-1.1-1.644-.8-1.282-1.567-2.581-2.366-3.862-.335-.536-.731-1.034-1.074-1.566-.277-.43-.256-.436.153-.679q1.939-1.15,3.873-2.3c.094-.056.2-.09.3-.137a31.858,31.858,0,0,0,5.206-3.106c.2-.143.383-.253.557.007.428.638.853,1.279,1.266,1.926.052.082.027.213.046.4" transform="translate(-92.199 -47.496)" fill="#e52e00"></path>
    <path id="Path_6196" data-name="Path 6196" d="M158.861,343.72c-.06-.811-.124-1.623-.18-2.435-.025-.356-.034-.715-.05-1.073-.078-1.756-.162-3.511-.234-5.268a14.557,14.557,0,0,1,.005-1.567.535.535,0,0,1,.313-.394c.9-.149,1.8-.273,2.7-.364.5-.05.536.032.324.473-.489,1.02-.975,2.039-1.481,3.05-.13.26-.165.414.12.608.475.324.917.7,1.361,1.07a2.211,2.211,0,0,1,.874,1.625c.012.25.112.339.36.3.759-.115,1.519-.211,2.277-.33,1-.158,2-.345,3-.494.812-.119,1.22.536,1.324,1.179a1.436,1.436,0,0,1-.931,1.482,11.513,11.513,0,0,1-1.2.294.641.641,0,0,0-.588.479,1.69,1.69,0,0,1-1.358,1.188q-2.409.547-4.816,1.107c-.455.106-.908.217-1.362.325-.288.069-.481.034-.462-.344a8.5,8.5,0,0,0-.045-.908l.048,0" transform="translate(-54.799 -115.081)" fill="#e52e00"></path>
    <path id="Path_6197" data-name="Path 6197" d="M236.821,84.114a1.89,1.89,0,0,1,1.411.714c.5.587,1.044,1.129,1.533,1.723.364.442.669.935,1,1.4.123.175.082.274-.116.375-1.1.557-2.152,1.211-3.286,1.677-1.463.6-2.757,1.492-4.148,2.209-.681.351-.673.33-1.107-.295-.612-.88-1.261-1.734-1.884-2.606a12.588,12.588,0,0,1-.757-1.171c-.037-.065.1-.293.2-.36.421-.258.861-.485,1.3-.719,1.575-.845,3.147-1.7,4.73-2.526a9.792,9.792,0,0,1,1.122-.426" transform="translate(-79.393 -29.103)" fill="#e52e00"></path>
    <path id="Path_6198" data-name="Path 6198" d="M217.165,95.979c.267-.59.5-1.139.769-1.664a.494.494,0,0,1,.417-.177,1.326,1.326,0,0,0,.91-.3c1.485-.879,2.978-1.744,4.465-2.62.266-.157.368-.043.5.192q1.143,2,2.322,3.973c.152.256.179.371-.139.56-2.311,1.373-4.6,2.78-6.9,4.18-.247.151-.476.332-.713.5-.084-.29-.175-.579-.25-.871-.048-.186-.076-.377-.107-.568a4.022,4.022,0,0,0-.615-1.6,8.975,8.975,0,0,1-.666-1.6" transform="translate(-75.139 -31.535)" fill="#e52e00"></path>
    <path id="Path_6199" data-name="Path 6199" d="M57.873,340.5H55.336c-.027,0-.056.018-.081.014-.373-.073-.745-.149-1.118-.224.165-.3.306-.617.5-.9.388-.566.81-1.11,1.209-1.67.17-.239.324-.255.521-.035.751.842,1.51,1.678,2.258,2.522a1.4,1.4,0,0,1,.164.337,1.933,1.933,0,0,1-.322.032c-.165-.01-.328-.043-.593-.08" transform="translate(-18.731 -116.785)" fill="#e52e00"></path>
    <path id="Path_6200" data-name="Path 6200" d="M102.073,221.213c3.055,2.233,5.688,4.934,8.8,7.1,5.007,3.481,10.017,3.467,15.714,4.514,1.791.329,5.863.8,6.575,2.855.678,1.955-1.9,5.063-2.762,6.72-2.31,4.449-4.525,9.866-5.016,14.865-.249,2.537,1.521,4.735,1.237,7.074-5.085-1.685-7.95-6.191-11.172-10.057-2.363-2.836-5.445-4.922-7.613-7.955-2.341-3.276-2.827-5.355-3.012-9.351-.2-4.414-2.94-7.01-6.243-9.587-.143-.063.131.116.033.023-.1-.033-.2-.061-.305-.086-.08-1.872,2.43-4.62,3.434-6.081.216-.02.882-.253.33-.031" transform="translate(-34.014 -76.506)" fill="#fff"></path>
    <path id="Path_6201" data-name="Path 6201" d="M40.524,126.729c0,.69-.011,1.379.005,2.069.007.288-.092.476-.365.325a11.659,11.659,0,0,0-2.319-.541,20.764,20.764,0,0,1-4.112-1.332.756.756,0,0,0-.238-.061,19.071,19.071,0,0,1-4.1-1.468c-.732-.311-1.517-.5-2.237-.834-1.046-.482-2.066-1.024-3.079-1.575-1.279-.7-2.577-1.366-3.8-2.155a33.572,33.572,0,0,1-4.537-3.416c-.421-.387-.894-.717-1.349-1.065a21.182,21.182,0,0,1-2.813-2.773c-.731-.812-1.533-1.559-2.3-2.336a1.413,1.413,0,0,1-.168-.181c-.929-1.33-1.887-2.643-2.772-4a30.469,30.469,0,0,1-1.492-2.669c-.579-1.12-1.164-2.241-1.661-3.4A23.59,23.59,0,0,1,1.9,97.753c-.183-.734-.493-1.446-.668-2.2a47.608,47.608,0,0,1-.912-4.769A43.2,43.2,0,0,1,.093,82.8,39.9,39.9,0,0,1,.81,76.9c.321-1.532.819-3.027,1.231-4.541.16-.585.242-1.2.455-1.759.468-1.234,1-2.444,1.5-3.664.272-.659.515-1.333.821-1.976.294-.619.661-1.2.982-1.809.473-.9.931-1.8,1.4-2.7.154-.292.32-.579.5-.857q.959-1.493,1.933-2.977c.12-.183.269-.348.406-.521a13.351,13.351,0,0,0,1.018-1.3,27.251,27.251,0,0,1,2.66-3.461c.725-.853,1.545-1.626,2.32-2.435a7.13,7.13,0,0,0,.559-.611,14.584,14.584,0,0,1,2.212-2.22c.77-.66,1.475-1.4,2.252-2.046.925-.774,1.946-1.438,2.833-2.25.978-.894,2.137-1.519,3.175-2.318.825-.636,1.661-1.267,2.543-1.82,1.677-1.051,3.379-2.063,5.093-3.052.685-.4,1.454-.643,2.146-1.029A63.286,63.286,0,0,1,43.724,30.4c.5-.207,1.05-.3,1.563-.489a2.081,2.081,0,0,0,.6-.392,1.238,1.238,0,0,1,1.657-.12c.771.521,1.509,1.093,2.279,1.616.36.245.764.422,1.144.636.835.47,1.67.94,2.5,1.419.356.205.7.43,1.048.648a1.44,1.44,0,0,0,.274.181c1.592.524,3.046,1.367,4.6,1.98,1.247.492,2.462,1.064,3.7,1.579a4.62,4.62,0,0,0,1.252.381,16.145,16.145,0,0,1,2.6.756c.974.269,1.925.618,2.9.9.518.148,1.056.228,1.588.324.838.151,1.68.288,2.519.435a1.869,1.869,0,0,1,.561.132,2.578,2.578,0,0,0,1.794.368.611.611,0,0,1,.316.037,15.292,15.292,0,0,0,3.394.581c.919.129,1.829.326,2.749.444a9.693,9.693,0,0,0,1.81.086,30.933,30.933,0,0,1,5.155.225,2.112,2.112,0,0,0,.479-.052A6.219,6.219,0,0,1,92.086,42a3.257,3.257,0,0,0,.817-.011q1.717-.148,3.432-.317c.38-.038.757-.109,1.134-.169a2.91,2.91,0,0,1,.32-.077,36.924,36.924,0,0,0,5.564-.965,24.621,24.621,0,0,0,2.827-.9,31.014,31.014,0,0,0,3.745-1.614c.744-.349,1.47-.735,2.2-1.12a1.092,1.092,0,0,1,1.295-.014.986.986,0,0,0,.61.1,10.606,10.606,0,0,1,1.29-.158c1.1.054,2.191.212,3.289.256a14.944,14.944,0,0,0,5.086-.245c.906-.277,1.634-.747,1.755-1.744a3.373,3.373,0,0,0-.166-1.6,5.111,5.111,0,0,0-1.106-1.908c-.69-.664-1.273-1.438-1.929-2.139-.449-.479-.94-.921-1.421-1.369a7.267,7.267,0,0,0-2.409-1.023.436.436,0,0,0-.361.12,6.885,6.885,0,0,0-.883.961c-.561.816-1.084,1.658-1.608,2.5a4.236,4.236,0,0,0-.54,1.014,6.675,6.675,0,0,1-1.434,2.479c-.356.419-.684.86-1.025,1.291a1.493,1.493,0,0,1-1.4.538.81.81,0,0,1-.517-.346,1.956,1.956,0,0,1-.32-.836c-.093-1.068-.169-2.14-.19-3.211-.027-1.345.008-2.692.012-4.038A9.533,9.533,0,0,1,111.3,22.6a3.146,3.146,0,0,1,1.511-1.347,7.687,7.687,0,0,1,4.545-.26c.842.139,1.693.22,2.532.366.674.118,1.339.291,2.007.444.107.024.206.084.313.1a3.176,3.176,0,0,0,.4.018,1.577,1.577,0,0,0-.183-.316c-.452-.479-.928-.937-1.369-1.425-.754-.835-1.457-1.718-2.24-2.524a5.3,5.3,0,0,0-4.093-1.776c-1.421.034-2.848-.149-4.271-.249a1.6,1.6,0,0,1-.549-.168c-.6-.289-.809-.852-.375-1.349a6.969,6.969,0,0,1,1.728-1.508,20.552,20.552,0,0,1,3.583-1.678,4.816,4.816,0,0,1,3.619-.122,14.967,14.967,0,0,1,2.061.8,22.244,22.244,0,0,1,2.921,1.983c.856.772,1.79,1.459,2.586,2.3.04.043.137.032.208.046a.683.683,0,0,0,.008-.232c-.165-.494-.317-.995-.515-1.476-.691-1.674-1.351-3.364-2.117-5-.6-1.288-1.351-2.505-2.018-3.762a6.5,6.5,0,0,1-.872-2.9,3.08,3.08,0,0,1,.672-1.99,1.742,1.742,0,0,1,2.318-.241,7.266,7.266,0,0,1,2.061,2.125c.846,1.385,1.652,2.8,2.454,4.206,1.295,2.277,2.2,4.733,3.265,7.117.157.353.322.7.49,1.048a.959.959,0,0,0,.146.179,1.229,1.229,0,0,0,.038-.24c-.067-1.485-.166-2.969-.2-4.455a15.609,15.609,0,0,1,.315-4.656c.148-.527.175-1.088.329-1.613a6.947,6.947,0,0,1,.594-1.432.94.94,0,0,1,1.686-.061,4.55,4.55,0,0,1,.661,1.4A28.325,28.325,0,0,1,136.1,7.03c.123.976.143,1.965.213,2.948q.249,3.5.5,7a1.292,1.292,0,0,0,.043.328,8.207,8.207,0,0,1,.262,2.691,35.5,35.5,0,0,0,.5,4.083,27.721,27.721,0,0,1,.207,3.209,17.366,17.366,0,0,0,.334,4.185,25.09,25.09,0,0,1,.46,2.666c.048.36.292.43.533.549,1.526.754,3.056,1.5,4.577,2.264,1.328.668,2.654,1.341,3.965,2.04.917.489,1.8,1.039,2.713,1.536.767.417,1.562.783,2.332,1.2.726.388,1.428.823,2.154,1.21,1.061.564,2.148,1.08,3.2,1.662.838.462,1.627,1.012,2.46,1.485.812.46,1.656.863,2.475,1.311.409.224.788.5,1.191.738a5.008,5.008,0,0,0,1.082.56,1.055,1.055,0,0,1,.8.946,1.088,1.088,0,0,1-.54,1.129c-1.18.69-2.394,1.323-3.577,2.01-.779.453-1.527.959-2.288,1.441-.093.058-.181.124-.277.176-1.037.56-2.082,1.1-3.108,1.681a13.872,13.872,0,0,0-1.146.8,2.834,2.834,0,0,1-.262.193q-1.947,1.063-3.9,2.118c-.459.248-.933.468-1.388.722-1.262.7-2.5,1.446-3.779,2.12-1.555.82-3.135,1.6-4.714,2.369a1.213,1.213,0,0,1-1.387-.147,13.037,13.037,0,0,1-3.375-3.894A38.2,38.2,0,0,1,133.3,53.06c-.432-1.328-.676-2.719-.974-4.088-.181-.83-.338-1.668-.446-2.511s-.139-1.7-.207-2.545a2.823,2.823,0,0,0-.06-.31,1.067,1.067,0,0,0-.282.139c-.259.245-.5.509-.756.756a16.749,16.749,0,0,1-2.983,2.194,4.3,4.3,0,0,1-4.254.406,13.067,13.067,0,0,1-3.063-1.743c-.3-.266-.7-.427-1.017-.68-1.464-1.162-2.913-2.341-4.372-3.508a3.011,3.011,0,0,0-.621-.407c-.39-.175-.633,0-.611.44a2.591,2.591,0,0,0,.6,1.679,20.517,20.517,0,0,0,4.235,3.763.7.7,0,0,1,.137.091,16.853,16.853,0,0,0,3.011,2.146,7.869,7.869,0,0,0,1.386.71,8.984,8.984,0,0,0,2.562.9c.188.017.411.26.517.454.593,1.083,1.162,2.18,1.72,3.281a8.44,8.44,0,0,1,.294.855,38.384,38.384,0,0,1,1.475,5.4,31.693,31.693,0,0,1,.775,5.048,48.516,48.516,0,0,1,.119,5.2,20.26,20.26,0,0,0-.2,2.449,16.417,16.417,0,0,1-.29,2.515c-.068.9-.35,1.772-.473,2.666a43.66,43.66,0,0,1-1.375,5.331A21.385,21.385,0,0,1,127,86.675c-.736,1.68-1.458,3.371-2.3,5a40.971,40.971,0,0,1-2.33,3.968A14.477,14.477,0,0,0,120.6,98.3a5.98,5.98,0,0,1-.884,1.282c-.248.33-.521.642-.785.959-.857,1.029-1.708,2.063-2.574,3.084-.584.689-1.188,1.36-1.789,2.036a.608.608,0,0,1-.2.1c-.016-.077-.065-.163-.044-.227a17.955,17.955,0,0,0,.657-1.948c.258-1.227.773-2.372.976-3.63.16-.992.337-2,.516-2.993a26.247,26.247,0,0,0,.468-4.159c.014-.825.1-1.649.109-2.474.01-.6-.046-1.206-.067-1.809-.013-.385,0-.771-.023-1.156a13.252,13.252,0,0,0-.278-3.184,13.36,13.36,0,0,1-.223-1.623c-.123-.758-.283-1.51-.4-2.268a9.693,9.693,0,0,0-.1-1.052c-.288-1.031-.617-2.05-.942-3.071-.242-.757-.492-1.511-.757-2.26a18.7,18.7,0,0,0-.681-1.763c-.5-1.064-1.025-2.122-1.592-3.154-.593-1.078-1.225-2.137-1.885-3.176-.322-.508-.777-.929-1.118-1.427a30.25,30.25,0,0,0-3.729-4.171,23.468,23.468,0,0,0-2.624-2.239,36.76,36.76,0,0,0-3.095-2.013A29.644,29.644,0,0,0,94.925,53.8c-.279-.107-.588-.132-.878-.212q-.755-.207-1.5-.438a5.23,5.23,0,0,0-.938-.316,39.267,39.267,0,0,0-7.15-.539,31.934,31.934,0,0,0-5.471.6c-.9.231-1.843.324-2.719.62a22.675,22.675,0,0,0-4.386,1.6,27.5,27.5,0,0,1-2.843,1.274,2.063,2.063,0,0,0-.3.14c-.707.462-1.407.935-2.117,1.393-.3.192-.636.326-.916.538-1.134.864-2.3,1.7-3.365,2.64a36.865,36.865,0,0,0-3.672,3.564,24.549,24.549,0,0,0-3.216,3.955c-.315.574-.8,1.054-1.146,1.611-.847,1.348-1.683,2.7-2.483,4.081-.47.809-.889,1.649-1.279,2.5-.285.622-.442,1.3-.731,1.923A26.717,26.717,0,0,0,48.3,83.084c-.284,1.054-.656,2.09-.859,3.159-.313,1.645-.526,3.309-.759,4.968-.122.87-.237,1.744-.274,2.62-.032.738.057,1.481.082,2.223.016.441,0,.884.022,1.324.021.389-.152.487-.5.409a6.513,6.513,0,0,0-4.178.6,7.523,7.523,0,0,0-4.59,6.637,10.523,10.523,0,0,0,.554,4.22,12.334,12.334,0,0,0,.99,2.086,20.9,20.9,0,0,0,1.252,1.94,14.5,14.5,0,0,0,3.606,3.342,19.517,19.517,0,0,0,3.364,1.711,9.693,9.693,0,0,0,3.906.806,14.9,14.9,0,0,0,4.767-.82,4.59,4.59,0,0,0,1.305-.843,1.133,1.133,0,0,1,1.271-.222A25.631,25.631,0,0,1,63.387,120a21.787,21.787,0,0,0,2.443,1.916,1.136,1.136,0,0,1,.295.287c.651.74,1.311,1.473,1.941,2.229a14.211,14.211,0,0,1,.861,1.207c.46.685.95,1.354,1.349,2.073.6,1.082,1.176,2.182,1.685,3.309a19.024,19.024,0,0,1,1.453,4.108c.23,1.156.6,2.283.867,3.433.161.695.264,1.405.356,2.114q.207,1.594.36,3.195a14.841,14.841,0,0,1,.131,2.391,2.559,2.559,0,0,0,1.559,2.564,4.175,4.175,0,0,0,.929.334,14.241,14.241,0,0,0,5.7.333,12.743,12.743,0,0,0,2.257-.415c.7-.226,1.418-.425,2.127-.636a2.411,2.411,0,0,1,.462-.136c.758-.063.776-.052.943-.736.293-1.2.489-2.433.86-3.609.4-1.278.946-2.514,1.458-3.757a22.058,22.058,0,0,1,1.007-2.165c.5-.914,1.09-1.779,1.594-2.691a19.975,19.975,0,0,1,1.619-2.577c1.087-1.413,2.054-2.929,3.241-4.25a19.236,19.236,0,0,1,4.851-3.816.9.9,0,0,1,.382-.139.631.631,0,0,1,.448.1.5.5,0,0,1-.028.439,2.806,2.806,0,0,1-.443.591,41.633,41.633,0,0,0-3.532,4.559c-.813,1.139-1.652,2.258-2.481,3.386a37.354,37.354,0,0,0-2.855,5.024c-.241.464-.481.931-.689,1.411-.2.452-.154.535.358.513,1.1-.047,2.194-.157,3.292-.214a7.9,7.9,0,0,1,1.137.067c.572.054,1.141.171,1.712.171.8,0,1.591-.126,2.385-.114a3.74,3.74,0,0,1,1.265.3.773.773,0,0,1,.525.916c-.093.568-.141,1.145-.213,1.716-.063.5-.048.516.413.583.923.135,1.85.252,2.766.422a2.947,2.947,0,0,1,.792.381c.067.036.1.153.168.172,1.536.441,2.3,1.738,3.158,2.9a34.832,34.832,0,0,1,3.281,6.005,81.01,81.01,0,0,1,3.086,7.654c.448,1.269.838,2.56,1.243,3.845.388,1.233.784,2.464,1.135,3.707.373,1.322.693,2.66,1.042,3.989.278,1.06.574,2.116.845,3.178.2.77.358,1.549.551,2.32.18.719.4,1.43.569,2.15q.5,2.091.963,4.188c.174.776.364,1.551.476,2.337.267,1.875.782,3.7,1.1,5.562.252,1.462.4,2.942.614,4.411.177,1.218.4,2.43.574,3.649.138.976.232,1.957.342,2.937.092.82.167,1.642.268,2.461a17.07,17.07,0,0,1,.365,3.013c-.092,1.529.355,2.993.315,4.51-.033,1.257.148,2.519.21,3.78.023.465-.038.934-.033,1.4.005.519.04,1.039.067,1.558a2.006,2.006,0,0,1,.047.326c-.21,1.552.056,3.118-.15,4.67-.094.706-.1,1.422-.195,2.129-.106.814-.249,1.625-.4,2.433-.143.782-.313,1.558-.473,2.337a1.69,1.69,0,0,1-2.528,1.309q-2.093-.856-4.184-1.721c-.8-.33-.84-.292-.863.566-.026.906-.164,1.815-.121,2.715.058,1.212-.145,2.4-.205,3.6a29.133,29.133,0,0,1-.484,3.343.908.908,0,0,1-.32.54,10.465,10.465,0,0,1-1.657,1.053c-1.171.538-2.369,1.018-3.575,1.471-.386.145-.377.4-.43.7-.107.621-.216,1.243-.377,1.851a.981.981,0,0,1-.8.744.851.851,0,0,1-1.111-.7,3.986,3.986,0,0,1-.016-1.147c.079-.734.258-1.462.294-2.2.033-.684-.09-1.373-.1-2.061a13.563,13.563,0,0,0-.724-4.119A11.176,11.176,0,0,0,109.2,234.5a1.951,1.951,0,0,1-.37-.633c-.053-.162-.053-.442.046-.528a.642.642,0,0,1,.577-.119,6,6,0,0,1,1.259.909c.761.765.735.778,1.72.426.619-.221,1.265-.373,1.87-.626a13,13,0,0,0,2.289-1.108,16.146,16.146,0,0,0,1.907-1.7c.162-.152.094-.288-.105-.37-.76-.314-1.523-.622-2.275-.952-.377-.166-.725-.4-1.105-.555a1.336,1.336,0,0,0-.764-.129c-1.966.517-3.922,1.067-5.881,1.61a74.132,74.132,0,0,1-8.166,1.652c-2.5.4-4.989.827-7.493,1.168-2.122.29-4.26.473-6.39.7-1.341.146-2.68.315-4.023.436-1.014.092-2.035.117-3.051.188-1.563.109-3.123.275-4.689.337-1.62.065-3.244.024-4.865.049-1.4.022-2.8.088-4.2.1-.629.006-1.259-.092-1.889-.1a35.607,35.607,0,0,1-7.051-.724,6.554,6.554,0,0,1-2.452-.943c-.17-.12-.3-.161-.319.1a10.313,10.313,0,0,0-.041,1.468c.012.155.251.36.429.423a35.863,35.863,0,0,0,5.964,1.89,11.66,11.66,0,0,0,1.563.124.74.74,0,0,0,.415-.2c.191-.153.337-.368.54-.5a1.538,1.538,0,0,1,.508-.122,1.516,1.516,0,0,1,.014.541c-.265.721-.619,1.414-.838,2.148a14.915,14.915,0,0,0-.761,3.7c-.039,1.071-.163,2.144-.111,3.21a24.683,24.683,0,0,0,.437,3.008c.08.459.275.9.356,1.358a.894.894,0,0,1-.533,1.08c-.5.2-.822.149-1.039-.326a15,15,0,0,1-.726-2.006c-.184-.626-.152-.621-.794-.67-1.453-.109-2.9-.247-4.357-.343a1.015,1.015,0,0,1-1.041-.96c-.158-.948-.363-1.891-.464-2.846-.156-1.478-.22-2.965-.362-4.445a13.314,13.314,0,0,0-.475-2.666,7.817,7.817,0,0,1,.143-4.866,2.107,2.107,0,0,0,.056-.317,1.857,1.857,0,0,0-.37.032c-2.03.591-4.052,1.211-6.089,1.778-1.879.523-3.774.99-5.662,1.481-.08.021-.162.033-.243.049-.276.053-.573.113-.759-.159a.807.807,0,0,1,.013-.936,2.137,2.137,0,0,1,.435-.486,10.938,10.938,0,0,0,2.642-3.441,28.418,28.418,0,0,0,1.827-4.592c.264-.8.492-1.621.718-2.437.054-.2.105-.278.325-.216.392.109.792.187,1.188.282a5.49,5.49,0,0,0,1.115.262,1.857,1.857,0,0,0,1.81-1.195,34.42,34.42,0,0,0,1.885-4.66,4.9,4.9,0,0,1,.228-.616,13.512,13.512,0,0,0,1.262-4.987,7.563,7.563,0,0,0,.024-1.386c-.134-1.007-.93-1.513-1.672-2.046-.4-.288-.8-.584-1.2-.871a4.411,4.411,0,0,0-.417-.26c-.523-.291-1.061-.559-1.564-.88A.644.644,0,0,1,48,206.6c.034-.879.109-1.757.145-2.636.071-1.76.137-3.52.183-5.282.05-1.874.1-3.748.1-5.622,0-1.155-.092-2.31-.142-3.465-.029-.656-.037-1.313-.085-1.968-.082-1.124-.211-2.245-.277-3.369s-.073-2.252-.115-3.377c-.01-.271-.063-.541-.092-.812-.059-.546-.109-1.092-.173-1.637-.218-1.828-.417-3.658-.668-5.482s-.5-3.653-.855-5.459q-.7-3.517-1.577-7c-.354-1.405-.872-2.77-1.3-4.158a1.383,1.383,0,0,1-.054-.8c.06-.17.36-.261.56-.376,2.342-1.349,4.94-1.608,7.56-1.783.712-.048,1.422-.16,2.134-.166a21.824,21.824,0,0,1,4.915.474c1.044.23,2.093.442,3.131.694a6.193,6.193,0,0,1,1.067.415.931.931,0,0,1,.54,1.077,3.35,3.35,0,0,0-.046.646c.061,1.344.178,2.687.19,4.03.024,2.7-.047,5.4,0,8.094.031,1.982.186,3.961.278,5.942q.174,3.713.335,7.426c.066,1.513.118,3.027.185,4.54q.159,3.588.329,7.174c.047,1.016.079,2.032.139,3.047.1,1.644.211,3.286.318,4.929,0,.056.005.111.007.166.052,1.845.1,3.69.158,5.535q.074,2.351.167,4.7c.054,1.35.128,2.7.182,4.05.063,1.6.1,3.2.174,4.792.063,1.291.188,2.579.255,3.87a22.965,22.965,0,0,1,.024,2.391,1.465,1.465,0,0,1-1.17,1.486c-3.141.922-6.258,1.921-9.383,2.894-.263.082-.524.173-.782.269-.136.052-.264.126-.4.19.13.094.248.238.392.275a17.854,17.854,0,0,0,2.4.544c2.243.244,4.49.5,6.743.591,2.087.087,4.182-.005,6.273-.06,1.292-.033,2.583-.153,3.875-.216,1.014-.05,2.031-.045,3.044-.111,1.893-.124,3.784-.281,5.675-.424.905-.069,1.813-.116,2.715-.216,1.746-.192,3.489-.415,5.234-.622.985-.116,1.972-.208,2.955-.339,1.086-.145,2.166-.326,3.25-.485.681-.1,1.371-.157,2.048-.283,2.892-.541,5.785-1.08,8.669-1.661,1.345-.271,2.672-.632,4.006-.956a1.324,1.324,0,0,0,.387-.139.235.235,0,0,0,.054-.226.634.634,0,0,0-.255-.2c-2.048-1-4.107-1.98-6.144-3a10.363,10.363,0,0,1-1.337-.94,1.142,1.142,0,0,1-.368-1.411,3.41,3.41,0,0,1,.436-.887,28.277,28.277,0,0,0,2.49-4.649c.294-.65.6-1.295.867-1.956.551-1.376,1.1-2.751,1.608-4.145.391-1.084.749-2.183,1.046-3.3.355-1.326.678-2.664.929-4.013.368-1.973.7-3.956.971-5.945a34.572,34.572,0,0,0,.262-3.615c.073-2.448.109-4.9.137-7.345.008-.713-.035-1.43-.1-2.141-.133-1.5-.262-3.01-.452-4.509-.145-1.142-.37-2.275-.577-3.409-.241-1.324-.439-2.661-.771-3.964-.406-1.6-.914-3.165-1.408-4.736q-.632-2.007-1.338-3.991c-.241-.67-.569-1.31-.859-1.963-.067-.151-.151-.295-.209-.449-.811-2.141-2.014-4.093-2.982-6.158a13.953,13.953,0,0,0-.747-1.275c-.039-.065-.151-.159-.173-.145a.41.41,0,0,0-.189.207c-.343,1.268-.672,2.54-1.014,3.808-.158.581-.341,1.156-.509,1.734-.152.526-.311,1.051-.447,1.582-.363,1.41-.7,2.826-1.078,4.233-.169.634-.412,1.247-.6,1.876-.133.446-.228.9-.346,1.354q-.4,1.512-.8,3.022-.438,1.635-.883,3.268c-.371,1.349-.761,2.693-1.122,4.044-.191.714-.334,1.441-.509,2.16a9,9,0,0,1-.369,1.351,43.814,43.814,0,0,0-1.294,4.588,5.345,5.345,0,0,1-.535,1.2c-.277.465-.562.459-.885.045-1.167-1.5-2.341-2.991-3.5-4.493-1.582-2.047-3.148-4.105-4.733-6.15-1.771-2.285-3.541-4.571-5.339-6.834-1.914-2.411-3.858-4.8-5.8-7.193a8.774,8.774,0,0,0-.744-.768.223.223,0,0,0-.215-.019.24.24,0,0,0-.077.215,5.929,5.929,0,0,0,.473.861c1.409,1.966,2.834,3.921,4.246,5.885,1.092,1.518,2.161,3.053,3.262,4.564.759,1.041,1.564,2.048,2.333,3.083.557.749,1.088,1.517,1.628,2.277.112.158.209.326.326.479.2.26.578.517.573.768a2.158,2.158,0,0,1-.487,1.008c-.868,1.271-1.766,2.521-2.636,3.791-.682,1-1.327,2.019-2.012,3.014-.591.859-1.221,1.693-1.823,2.543a12.254,12.254,0,0,0-.86,1.306,1.112,1.112,0,0,1-.836.594c-.583.117-.971-.13-.961-.705a21.5,21.5,0,0,0-.648-4.224c-.3-1.625-.623-3.246-.953-4.864-.438-2.15-.906-4.294-1.337-6.445-.4-1.994-.754-4-1.153-5.991-.221-1.1-.513-2.2-.736-3.3-.315-1.563-.594-3.133-.893-4.7-.222-1.161-.419-2.329-.7-3.475a2.875,2.875,0,0,0-.644-1.132,61.668,61.668,0,0,1-3.81-4.976c-.349-.494-.745-.955-1.126-1.427-.2-.251-.249-.466.041-.7.17-.135.275-.354.448-.481a6.951,6.951,0,0,0,2.068-2.53c.145-.284.26-.3.474-.085.623.619,1.259,1.224,1.88,1.844,1.56,1.556,3.128,3.1,4.668,4.679,1.811,1.853,3.587,3.742,5.394,5.6,1.093,1.125,2.221,2.215,3.321,3.333q.9.913,1.753,1.868a57.706,57.706,0,0,0,5.718,5.244c.8.678,1.578,1.377,2.369,2.063a.663.663,0,0,0,.186.078c-.012-.075,0-.173-.041-.222-.328-.372-.66-.74-1-1.1-1.521-1.6-3.069-3.169-4.56-4.792-1.024-1.114-1.963-2.307-2.957-3.449-.632-.726-1.29-1.43-1.948-2.133-.959-1.027-1.937-2.037-2.891-3.067-.524-.566-1.018-1.16-1.523-1.743a2.225,2.225,0,0,1-.135-.194A1.091,1.091,0,0,1,76.5,156c.251.113.493.245.74.368a40.132,40.132,0,0,0,6.45,2.726,22.285,22.285,0,0,0,5.572,1.052c.963.031,1.929.008,2.894-.016,1.157-.029,2.313-.086,3.469-.131a1.774,1.774,0,0,0,.33-.021c.065-.016.119-.083.179-.127-.05-.052-.093-.137-.152-.151a9.394,9.394,0,0,0-.966-.188c-1.938-.232-3.891-.371-5.81-.7a44.77,44.77,0,0,1-4.628-1.175,37.3,37.3,0,0,1-4.856-1.842,36.392,36.392,0,0,1-4.1-2.1c-1.388-.84-2.779-1.677-4.154-2.537a4.388,4.388,0,0,1-.879-.75,27.3,27.3,0,0,0-3.7-3.4,2.062,2.062,0,0,1-.47-.462.756.756,0,0,1-.152-.5,10.377,10.377,0,0,0,.146-3.045.514.514,0,0,1,.515-.656c.708-.1,1.42-.174,2.132-.228,1.016-.078,2.035-.132,3.053-.188.678-.037.679-.031.64-.687a12.428,12.428,0,0,0-.608-3.152c-.274-.835-.361-1.73-.617-2.572-.424-1.393-.906-2.768-1.387-4.143-.19-.544-.439-1.067-.663-1.6-.135-.323-.317-.4-.706-.337-1.028.181-2.074.267-3.113.383-.926.1-1.854.19-2.78.293-1.062.117-2.121.279-3.186.354-.906.064-1.818.022-2.727.046-.6.016-1.208.065-1.812.1a1.915,1.915,0,0,1-.493,0,16.423,16.423,0,0,0-3.047-.1c-.409-.012-.814-.113-1.222-.161a.7.7,0,0,0-.233.06.62.62,0,0,0,.086.216q.4.417.82.816,2.079,1.989,4.161,3.972c.875.835,1.756,1.664,2.619,2.512a1.241,1.241,0,0,0,1.033.4,5.7,5.7,0,0,1,4.385,1.763,9.809,9.809,0,0,1,.954,1.023,4.029,4.029,0,0,1,.61,3.68A6.368,6.368,0,0,1,63.53,147.6a6.756,6.756,0,0,1-2.679,2.239,6.636,6.636,0,0,1-1.914.427,3.726,3.726,0,0,1-3.021-1.415c-1.542-1.69-1.462-3.623-.833-5.635.048-.155.127-.3.177-.456a.2.2,0,0,0-.037-.145c-.069,0-.173,0-.2.042-.562.826-1.4,1.508-1.409,2.63,0,.051-.048.1-.058.154-.073.359-.262.421-.637.409a30.831,30.831,0,0,1-7.649-1.6,29.171,29.171,0,0,1-7.091-3.072,1.3,1.3,0,0,0-.366-.18.469.469,0,0,0-.29.075.289.289,0,0,0,.048.217,9.843,9.843,0,0,0,.919.823,29.342,29.342,0,0,0,6.857,3.577,26.27,26.27,0,0,0,6.541,1.617c.43.049.865.051,1.3.061.3.007.43.166.513.437.17.55.36,1.095.557,1.636.089.247,0,.375-.233.408a10.694,10.694,0,0,1-1.475.177,12.35,12.35,0,0,1-3.122-.183c-1.114-.285-2.244-.508-3.364-.771a5.67,5.67,0,0,1-.776-.273c-.97-.383-1.947-.751-2.9-1.166-.5-.217-.97-.513-1.449-.781-.67-.374-1.362-.717-2-1.139a20.316,20.316,0,0,1-3.489-2.86c-.777-.809-1.42-1.746-2.124-2.625a4.8,4.8,0,0,0-.371-.44.906.906,0,0,1-.254-1.052.93.93,0,0,1,.972-.626,16.917,16.917,0,0,1,1.729.125c1.878.284,3.751.6,5.625.9,1.9.311,3.8.635,5.706.937a5.594,5.594,0,0,0,.889,0c-.152-.254-.3-.513-.456-.763-.575-.9-1.2-1.772-1.717-2.708a27.246,27.246,0,0,1-1.392-2.984,26.362,26.362,0,0,1-.816-2.592c-.118-.417-.106-.872-.453-1.207-.064-.062-.065-.208-.065-.315a37.627,37.627,0,0,0-.91-5.858,6.041,6.041,0,0,0-.211-.964.487.487,0,0,0-.349-.273.544.544,0,0,0-.373.234.931.931,0,0,0-.152.46c-.09,1.208-.166,2.417-.247,3.625l.054,0m12.457,12.888a7.091,7.091,0,0,0-.622-2.685c-.665-1.261-1.407-2.481-2.123-3.714a2.185,2.185,0,0,0-.315-.377c-.027-.028-.093-.02-.141-.028a.418.418,0,0,0,.016.14,9.059,9.059,0,0,1,.494.942c.4,1.049.789,2.1,1.131,3.169a15.822,15.822,0,0,1,.381,1.766c.014.068-.035.148-.055.224a.831.831,0,0,1-.219-.1,5.3,5.3,0,0,1-.614-.551,20.045,20.045,0,0,1-3.535-5.44c-.158-.379-.343-.749-.533-1.114-.041-.078-.187-.184-.229-.164-.1.05-.243.164-.248.258a3.4,3.4,0,0,0,.046.9,10.534,10.534,0,0,0,1.514,3.459,30.442,30.442,0,0,0,1.9,2.582,6.15,6.15,0,0,0,2.284,1.733c.533.242.844.034.867-.553,0-.111,0-.221,0-.451" transform="translate(-0.003 0)" fill="#260000"></path>
    <path id="Path_6202" data-name="Path 6202" d="M113.95,42.1c-.854,0-1.711.039-2.562-.011-.816-.048-1.625-.189-2.438-.289s-1.632-.188-2.446-.3c-.542-.077-1.079-.194-1.619-.29-.486-.087-.971-.175-1.457-.256-.974-.164-1.95-.313-2.921-.487-.538-.1-1.071-.225-1.6-.353-1.52-.366-3.042-.725-4.556-1.117a8.345,8.345,0,0,1-2.273-.7c-.22-.13-.544-.069-.8-.152-.785-.25-1.56-.527-2.34-.794a12.6,12.6,0,0,0-1.409-.473,14.217,14.217,0,0,1-2.951-.986c-.723-.331-1.508-.521-2.243-.829-1.082-.453-2.143-.96-3.216-1.434-.25-.111-.517-.181-.775-.275a1.466,1.466,0,0,1-1.122-1.248c-.177-1.162-.506-2.3-.766-3.451-.224-.99-.481-1.973-.654-2.972-.211-1.218-.353-2.448-.519-3.674-.1-.736-.19-1.473-.28-2.211a1.726,1.726,0,0,1,1.165-1.953,6.107,6.107,0,0,1,5.3.464c1.594.888,2.981,2.053,4.5,3.034a3.816,3.816,0,0,1,.474.458,1.575,1.575,0,0,0,.379.318q1.3.585,2.625,1.135c.226.095.48.119.71.206a9.177,9.177,0,0,0,3.84.652,11.884,11.884,0,0,1,1.39,0,4.979,4.979,0,0,0,2.14-.519,2.91,2.91,0,0,0,1.617-1.761,1.444,1.444,0,0,0,.047-.793c-.1-.483-.344-.566-.674-.192-1,1.134-2.284,1.063-3.585.885a17.541,17.541,0,0,1-2.423-.471,16.556,16.556,0,0,1-2.138-.838,14.788,14.788,0,0,1-1.306-.7.227.227,0,0,1-.067-.4,25.252,25.252,0,0,0,2.773-4.177,8.635,8.635,0,0,1,2.316-2.521,10.863,10.863,0,0,1,3.028-1.435,4.789,4.789,0,0,1,4.122.56,12.038,12.038,0,0,1,3.195,2.7,4.694,4.694,0,0,1,.541.73c.761,1.338,1.445,2.725,2.275,4.018,1.048,1.634,1.55,3.526,2.57,5.165a12.036,12.036,0,0,0,1.309,2.927c.727,1.478,1.473,2.946,2.211,4.418a1.709,1.709,0,0,1,.171.375,26.057,26.057,0,0,0,1.646,3.934,9.132,9.132,0,0,0,.829,1.422,35.511,35.511,0,0,1,1.986,4.157c.112.245.009.372-.235.389q-1.479.1-2.959.186c-.275.016-.551,0-.826,0,0-.022,0-.044,0-.067" transform="translate(-25.944 -3.785)" fill="#260000"></path>
    <path id="Path_6203" data-name="Path 6203" d="M107.389,375.362q-2.882-.072-5.764-.145c-.457-.012-.5.033-.276.445.169.313.406.592.562.912a.81.81,0,0,1-.611,1.24.6.6,0,0,1-.686-.324,5.084,5.084,0,0,1-.355-.742,14.659,14.659,0,0,1-.847-7.938,15.206,15.206,0,0,1,2.18-5.562,2.147,2.147,0,0,1,.468-.574.564.564,0,0,1,.5-.1.591.591,0,0,1,.2.479,2.263,2.263,0,0,1-.232.61c-.066.162-.143.3.163.275,1.318-.091,2.638-.189,3.958-.23,1.4-.044,2.8-.045,4.2-.022a3.733,3.733,0,0,1,1.2.257c.483.178.581.463.346.9a17.314,17.314,0,0,0-1.564,5.692,9.11,9.11,0,0,0,0,3.283c.172.823-.175,1.239-1.039,1.333-.793.087-1.594.107-2.391.157l0,.045" transform="translate(-34.326 -125.442)" fill="#260000"></path>
    <path id="Path_6204" data-name="Path 6204" d="M159.855,369.284c-.145.974-.265,1.953-.445,2.921a.955.955,0,0,1-.746.886c-.626.128-.934-.034-1.108-.656-.075-.271-.081-.649-.261-.776s-.524.033-.8.076c-.841.131-1.681.269-2.521.4-.565.09-1.129.187-1.7.257-.328.041-.363-.2-.31-.435a11.626,11.626,0,0,1,.383-1.434,4.386,4.386,0,0,0-.141-3.287c-.133-.33-.19-.689-.3-1.027a9.587,9.587,0,0,0-2.284-3.679,3.328,3.328,0,0,1-.345-.355c-.149-.208-.162-.414.116-.537a4.105,4.105,0,0,1,.758-.309c1.583-.341,3.171-.66,4.756-.991.455-.095.461-.12.216-.512a.986.986,0,0,0-.1-.133c-.245-.276-.365-.59-.082-.883.245-.253.562-.16.843-.012a3.99,3.99,0,0,1,1.76,1.694,20.956,20.956,0,0,1,1.349,3.1,19.693,19.693,0,0,1,.956,5.694" transform="translate(-51.615 -124.093)" fill="#260000"></path>
    <path id="Path_6205" data-name="Path 6205" d="M142.348,101.561c.847.118,1.747.232,2.644.37a4.094,4.094,0,0,1,2.02,1.221c.349.308.678.64,1.023.954a2.892,2.892,0,0,1,1.1,2.845,1.14,1.14,0,0,1-.18.311c-.088-.1-.214-.184-.254-.3-.07-.2-.022-.474-.139-.632a4.319,4.319,0,0,0-.933-1.008,17.1,17.1,0,0,0-1.79-1.007,3.691,3.691,0,0,0-1.905-.443c-.548.021-1.1-.031-1.647-.012a4.872,4.872,0,0,0-2.386,1.012,8.011,8.011,0,0,0-1.749,1.721,3.443,3.443,0,0,0-.743,2.307,4.84,4.84,0,0,0,.984,3.174,6.127,6.127,0,0,1,.672,1.133,8.983,8.983,0,0,0,1.817,2.433,2.364,2.364,0,0,1,.286.4c.674,1,1.37,1.995,2.015,3.018s1.243,2.078,1.848,3.127c.058.1.021.253.028.382-.1-.014-.208-.035-.313-.039a7.935,7.935,0,0,0-1.545-.022,1.226,1.226,0,0,1-1.379-.6c-.88-1.262-1.848-2.462-2.75-3.709-.674-.933-1.29-1.907-1.95-2.85a18.631,18.631,0,0,1-1.628-2.868,7.222,7.222,0,0,1,.164-6.668,8.175,8.175,0,0,1,5.158-4.076,8.348,8.348,0,0,1,1.53-.181" transform="translate(-46.627 -35.14)" fill="#260000"></path>
    <path id="Path_6206" data-name="Path 6206" d="M74.044,160.571a12.856,12.856,0,0,0,.3,1.348.574.574,0,0,0,.834.415,1.669,1.669,0,0,1,1.985.621,3.638,3.638,0,0,1,.963,3.432,1.7,1.7,0,0,1-.823,1.173c-.264.138-.464.4-.729.535a1.319,1.319,0,0,1-.69.119.206.206,0,0,1-.1-.372,8.142,8.142,0,0,1,.709-.678,1.039,1.039,0,0,0,.4-1.238c-.065-.209-.075-.437-.151-.64-.283-.761-.434-.87-1.265-.784a2.9,2.9,0,0,1-3.184-3.709c.362-1.319-.294-2.044-.991-2.815a4.96,4.96,0,0,0-1.937-1.218,3.813,3.813,0,0,0-2.806.13,1.451,1.451,0,0,0-.959,1.576,4.908,4.908,0,0,0,.8,2.805c.051.065.024.19.034.288a.8.8,0,0,1-.3.021.777.777,0,0,1-.342-.224c-.947-1.215-1.685-2.672-.974-4.422a2.92,2.92,0,0,1,1.162-1.354,4.569,4.569,0,0,1,5.289-.087,5.7,5.7,0,0,1,2.832,4.152,6.194,6.194,0,0,1,.058.905l-.112.022" transform="translate(-22.328 -53.524)" fill="#260000"></path>
    <path id="Path_6207" data-name="Path 6207" d="M114.3,105.774a14.593,14.593,0,0,1,4.324.918,2.2,2.2,0,0,1,1.125,1.052.866.866,0,0,1-.709,1.375,1.712,1.712,0,0,1-.872-.135,13.912,13.912,0,0,0-3.682-1.105,3.351,3.351,0,0,0-.889.009,10.855,10.855,0,0,1-1.626.187,8.237,8.237,0,0,0-3.22.583,9.528,9.528,0,0,0-2.343,1.5,4.559,4.559,0,0,0-1.753,2.526.652.652,0,0,1-.136.3c-.1.1-.26.245-.37.228s-.3-.211-.293-.318a6.1,6.1,0,0,1,.224-1.944,8.082,8.082,0,0,1,2.507-3.107,6.333,6.333,0,0,1,.721-.545,5.027,5.027,0,0,1,1.714-.735,16.5,16.5,0,0,1,3-.439,7.824,7.824,0,0,0,1.208-.209c.378-.06.76-.1,1.069-.137" transform="translate(-35.932 -36.598)" fill="#260000"></path>
    <path id="Path_6208" data-name="Path 6208" d="M117.849,122.959a3.034,3.034,0,0,1-2.482-1.632,2.692,2.692,0,0,1-.035-2.374,2.994,2.994,0,0,1,1.706-1.352,1.833,1.833,0,0,1,1.874.905.655.655,0,0,1-.591.991,2.451,2.451,0,0,0-.56.085c-.1.04-.255.244-.233.279a.6.6,0,0,0,.339.286,2.679,2.679,0,0,0,.562-.089,1.178,1.178,0,0,1,1.424.942,1.121,1.121,0,0,1-.236.925,1.99,1.99,0,0,1-1.768,1.035" transform="translate(-39.812 -40.674)" fill="#260000"></path>
    <path id="Path_6209" data-name="Path 6209" d="M149.458,113.428a1.76,1.76,0,0,1,1.168.559c.424.531.318.951-.3,1.23a5.333,5.333,0,0,0-.575.346,5.061,5.061,0,0,0,.6.362,1.917,1.917,0,0,0,.637.164,1.125,1.125,0,0,1,1.061.987,1.353,1.353,0,0,1-.659,1.306,2.272,2.272,0,0,1-2.937-.282,3.705,3.705,0,0,1-1.027-1.366,2.453,2.453,0,0,1-.1-1.767,1.947,1.947,0,0,1,2.133-1.54" transform="translate(-50.933 -39.246)" fill="#260000"></path>
    <path id="Path_6210" data-name="Path 6210" d="M96.592,81.15l1.2-.256c.727-.154,1.456-.3,2.18-.464.906-.209,1.8-.466,2.714-.645.939-.184,1.889-.313,2.839-.441,1.683-.226,3.368-.446,5.055-.642,1.035-.12,2.079-.157,3.111-.292a43.227,43.227,0,0,0,4.787-.77c1.278-.316,2.558-.621,3.832-.95a5.357,5.357,0,0,0,.833-.348,14.676,14.676,0,0,0,2.7-1.194c.422-.3.895-.534,1.315-.837a17.048,17.048,0,0,0,2.779-2.2c.148-.162.348-.375.551-.162a.679.679,0,0,1,.086.582,3.532,3.532,0,0,1-.549,1.1,18.755,18.755,0,0,1-3.144,3.095,25.884,25.884,0,0,1-5.154,2.55,16.619,16.619,0,0,1-2.935.808c-1.5.352-3,.714-4.52.978-1.407.245-2.836.366-4.254.547-.354.045-.706.111-1.059.163-1.928.285-3.857.564-5.783.86a8.182,8.182,0,0,0-1.022.271c-.044.013-.072.08-.107.122.046.022.1.067.14.063q1.884-.184,3.767-.378c.574-.058,1.145-.127,1.719-.173.9-.073,1.8-.126,2.7-.2.791-.065,1.581-.141,2.371-.22,1.011-.1,2.023-.2,3.033-.321s2.017-.258,3.025-.388a3.374,3.374,0,0,1,.409-.052,19.761,19.761,0,0,0,4.275-.753,28.1,28.1,0,0,0,6.567-2.822,14.478,14.478,0,0,0,2.215-1.708,4.028,4.028,0,0,1,.365-.332c.173-.1.343-.045.353.171a1.066,1.066,0,0,1-.1.551,5.167,5.167,0,0,1-.738,1.092,13.069,13.069,0,0,1-2.443,2.207c-1.1.662-2.148,1.422-3.286,2.008a17.462,17.462,0,0,1-3.521,1.372c-1.526.407-3.085.542-4.623.825-2.87.528-5.781.744-8.654,1.234-1.242.212-2.516.224-3.772.358-1.967.209-3.932.449-5.9.667-1.148.127-2.3.216-3.445.361-.6.076-1.184.232-1.774.36-.061.013-.107.09-.161.138.063.038.128.112.189.108a3.693,3.693,0,0,0,.819-.091,19.5,19.5,0,0,1,3.682-.427c1.4-.139,2.81-.111,4.2-.293s2.806-.134,4.177-.345c2.236-.343,4.491-.348,6.728-.6,1.744-.194,3.486-.391,5.223-.636a16.18,16.18,0,0,0,1.921-.489c1.506-.405,3.033-.749,4.511-1.241a24.343,24.343,0,0,0,4.611-1.784,16.8,16.8,0,0,0,3.424-2.284c.371-.36.681-.785,1.024-1.175a2.917,2.917,0,0,1,.289-.254,1.74,1.74,0,0,1,0,.436,5.2,5.2,0,0,1-1.33,2.342c-.78.812-1.634,1.557-2.49,2.291a13.747,13.747,0,0,1-3.361,1.9c-1.447.661-2.916,1.273-4.386,1.879a10.765,10.765,0,0,1-1.2.316c-.869.246-1.722.574-2.606.739-2.053.382-4.11.793-6.185.989-1.587.15-3.159.4-4.741.537-2.33.2-4.638.632-6.994.6-1.258-.016-2.519.177-3.778.272-.876.067-1.761.076-2.628.2a46.255,46.255,0,0,0-7.828,1.579c-.73.239-1.432.561-2.149.84-.334.13-.668.257-1.007.371a3.646,3.646,0,0,0-2.123,1.96,7.875,7.875,0,0,0-.417,2.006c-.165.917-.354,1.831-.466,2.755-.088.729-.075,1.47-.1,2.205-.007.19-.005.381,0,.572.006.574.009,1.148.022,1.722.017.688.047,1.376.065,2.064a26.626,26.626,0,0,0,.968,5.931,8.191,8.191,0,0,0,1.874,3.451,7.144,7.144,0,0,1,.7.816c.087.133.111.446.026.522a.661.661,0,0,1-.576.124,8.413,8.413,0,0,1-1.061-.63,8.122,8.122,0,0,1-2.73-2.091,10.286,10.286,0,0,1-.975-1.517c-.349-.775-.593-1.6-.864-2.406-.236-.7-.44-1.42-.676-2.124-.037-.11-.167-.188-.254-.281a1.03,1.03,0,0,0-.077.309c.06.8.107,1.6.209,2.386.122.944.259,1.889.455,2.82a13.168,13.168,0,0,0,1.6,4.564c.155.24.424.55.09.8-.356.268-.524-.115-.712-.333-.522-.606-1.031-1.224-1.557-1.825a14.639,14.639,0,0,1-2.211-3.57,11.278,11.278,0,0,1-.477-2,7.487,7.487,0,0,0-.292-.795c-.018.239-.037.479-.053.718-.025.385-.056.769-.071,1.154a14.443,14.443,0,0,0,.969,5.728,8.607,8.607,0,0,0,.62,1.157c.08.143.228.258.274.407a.519.519,0,0,1-.044.434.445.445,0,0,1-.428.047c-.391-.253-.757-.547-1.122-.838-.105-.084-.156-.241-.266-.313a6.445,6.445,0,0,1-2.12-2.486,4.05,4.05,0,0,1-.52-1.109c-.172-.97-.26-1.955-.365-2.937a6.72,6.72,0,0,1-.076-1.394c.115-1.092.354-2.171.436-3.263a16.06,16.06,0,0,1,1.4-4.82,39.375,39.375,0,0,1,1.747-3.636c.32-.6.8-1.114,1.183-1.687a5.306,5.306,0,0,0,.676-1.221,11.106,11.106,0,0,1,2.64-4.247,7.283,7.283,0,0,0,1.484-2.044,11.517,11.517,0,0,1,1.481-2.38,26.5,26.5,0,0,1,1.9-1.937c.479-.492.965-.982,1.4-1.512a8.777,8.777,0,0,1,2.474-2.162c.569-.32,1.063-.773,1.619-1.121.579-.362,1.186-.681,1.794-1,.683-.354,1.37-.706,2.074-1.017.852-.376,1.715-.729,2.589-1.053,1-.37,2-.739,3.029-1.033,1.209-.347,2.436-.63,3.663-.906.965-.217,1.941-.393,2.916-.563.838-.146,1.682-.255,2.522-.388.976-.154,1.952-.3,2.924-.479,1.3-.233,2.6-.462,3.885-.738a19.194,19.194,0,0,0,6.779-2.711,11.405,11.405,0,0,0,.972-.884,1.079,1.079,0,0,1,.358-.128c.031.14.127.308.081.414a4.451,4.451,0,0,1-.575,1.075,11.293,11.293,0,0,1-3.682,2.734,35.329,35.329,0,0,1-7.891,2.6c-2.644.651-5.33,1.129-7.989,1.724-.991.221-1.963.534-2.933.842-1.073.342-2.143.7-3.192,1.108a5.735,5.735,0,0,0-1.061.712c-.514-.027-1.023-.039-1.354.466l-.037.042c.007-.02.014-.039.021-.058l1.35-.472M94,87.112l-.475.249c.072.025.158.087.213.067a2.848,2.848,0,0,0,.393-.216l-.131-.1m-1.111.493.226-.075a.6.6,0,0,0-.19-.081.844.844,0,0,0-.225.055l.189.1" transform="translate(-24.876 -24.205)" fill="#e52e00"></path>
    <path id="Path_6211" data-name="Path 6211" d="M76.072,248.933a10.052,10.052,0,0,1,1.154-4.847.615.615,0,0,0-.1-.814,7.557,7.557,0,0,0-4.925-2.889c-.162-.02-.317-.088-.478-.123-.206-.045-.415-.08-.623-.119.232-.109.462-.309.695-.311a6.881,6.881,0,0,1,3.987,1.109,17.81,17.81,0,0,1,1.978,1.615c.267.243.4.177.6-.031.472-.5.927-1.02,1.434-1.481a14.135,14.135,0,0,1,3.489-1.84.435.435,0,0,1,.637.181.485.485,0,0,1-.23.7,4.028,4.028,0,0,1-.9.411,8.164,8.164,0,0,0-4.017,2.888c-.21.254-.124.423-.007.651a15.393,15.393,0,0,1,1.531,4.859,5.046,5.046,0,0,1-.436,3.38,1.552,1.552,0,0,1-1.884.805,2.386,2.386,0,0,1-1.388-1.33,8.067,8.067,0,0,1-.516-2.814m3.241,1.18c-.145-.82-.245-1.61-.432-2.379-.22-.9-.519-1.784-.781-2.676-.077-.264-.237-.231-.313-.039-.19.478-.349.971-.492,1.466a7.336,7.336,0,0,0,.058,4.445,2.163,2.163,0,0,0,.566.868c.455.419.871.316,1.078-.267a11.042,11.042,0,0,0,.317-1.419" transform="translate(-24.6 -82.74)" fill="#e52e00"></path>
    <path id="Path_6212" data-name="Path 6212" d="M224.937,73.717a1.529,1.529,0,0,1,.581-1.072c1.1-.914,2.226-1.794,3.328-2.7.848-.7,1.662-1.438,2.513-2.133,1.343-1.1,2.7-2.177,4.057-3.262.624-.5,1.236-1.014,1.884-1.481.539-.388.8-.394,1.03-.152s.155.494-.322.979c-.387.392-.8.757-1.211,1.128-1.812,1.65-3.613,3.312-5.441,4.942-1.246,1.111-2.537,2.173-3.8,3.269-.351.305-.652.669-1,.982a1.682,1.682,0,0,1-.557.334c-.587.205-1.045-.131-1.068-.83" transform="translate(-77.828 -21.711)" fill="#e52e00"></path>
    <path id="Path_6213" data-name="Path 6213" d="M180.2,312.094c.052.131.116.209.1.262a4.474,4.474,0,0,1-.337.927,24.549,24.549,0,0,0-2.792,6.94,19.181,19.181,0,0,0-.418,8.031,7.037,7.037,0,0,0,1.1,2.906.753.753,0,0,1,.058.853c-.248.479-.768.565-1.038.111a12.264,12.264,0,0,1-.809-1.7,13.294,13.294,0,0,1-.826-5.259,22.518,22.518,0,0,1,2.672-10.278,17.464,17.464,0,0,1,1.613-2.284,3.209,3.209,0,0,1,.674-.508" transform="translate(-60.632 -107.984)" fill="#e52e00"></path>
    <path id="Path_6214" data-name="Path 6214" d="M218.536,69.2a1.074,1.074,0,0,1,.481-.837c1.2-1.053,2.4-2.111,3.6-3.159q1.679-1.46,3.372-2.9c1.092-.925,2.194-1.836,3.3-2.746a1.82,1.82,0,0,1,.562-.336.52.52,0,0,1,.447.072.457.457,0,0,1,.014.432,5.05,5.05,0,0,1-.757,1.075c-1.169,1.127-2.362,2.228-3.566,3.318-1.426,1.291-2.875,2.556-4.308,3.839-.551.494-1.078,1.014-1.633,1.5a2.125,2.125,0,0,1-.686.436c-.48.163-.814-.109-.829-.693" transform="translate(-75.613 -20.482)" fill="#e52e00"></path>
    <path id="Path_6215" data-name="Path 6215" d="M82.613,321.593a31.863,31.863,0,0,1-1.052,6.1,32.831,32.831,0,0,1-3.336,7.869,13.412,13.412,0,0,1-2.6,3.18,1.372,1.372,0,0,1-.194.153c-.244.148-.5.284-.75.03-.276-.284-.134-.547.08-.8.6-.713,1.245-1.4,1.8-2.151a24.374,24.374,0,0,0,2.993-5.578q1.01-2.561,1.869-5.182a12.282,12.282,0,0,0,.681-4.365c-.019-.408-.111-.812-.161-1.219a1,1,0,0,1,.029-.238c.075.064.2.117.217.194.151.667.284,1.338.422,2.008" transform="translate(-25.787 -110.509)" fill="#e52e00"></path>
    <path id="Path_6216" data-name="Path 6216" d="M168.03,241.044a2.459,2.459,0,0,1-2.105-1.392,7.12,7.12,0,0,1-.825-3.16c-.028-1.016.063-2.036.073-3.054a1.156,1.156,0,0,0-.208-.6,6.171,6.171,0,0,0-1.836-1.867c-.139-.09-.285-.169-.417-.268a.846.846,0,0,1-.145-.189c.1-.028.2-.1.285-.078a4.247,4.247,0,0,1,1.777,1c.26.207.512.426.767.639.1-.313.185-.629.287-.939.171-.52.329-1.046.536-1.551a1.718,1.718,0,0,1,.442-.581.248.248,0,0,1,.409.2,1.154,1.154,0,0,1-.065.321c-.281.974-.53,1.96-.864,2.916a1.022,1.022,0,0,0,.211,1.051,15.554,15.554,0,0,1,2.4,5.118,3.48,3.48,0,0,1,.146,1.791c-.142.541-.23.627-.872.638m-2.167-5.386a7.985,7.985,0,0,0,.508,3.068,2.088,2.088,0,0,0,1.277,1.411c.48.164.624.063.541-.423a18.763,18.763,0,0,0-1.836-4.9,1.951,1.951,0,0,0-.378-.414,3.8,3.8,0,0,0-.107.513c-.018.246,0,.494,0,.742" transform="translate(-56.248 -79.215)" fill="#e52e00"></path>
    <path id="Path_6217" data-name="Path 6217" d="M223.542,55.418a1.848,1.848,0,0,1-.185.284c-.347.39-.68.8-1.06,1.152-2.05,1.913-4.117,3.809-6.171,5.719-.8.747-1.584,1.517-2.384,2.267a2.341,2.341,0,0,1-.6.439c-.292.135-.62.287-.908-.036a.741.741,0,0,1-.011-.99,10.933,10.933,0,0,1,1.271-1.286c1-.86,2.036-1.681,3.05-2.526q3.01-2.51,6.014-5.027a2.632,2.632,0,0,1,.552-.357c.233-.111.459.052.429.362" transform="translate(-73.366 -19.037)" fill="#e52e00"></path>
    <path id="Path_6218" data-name="Path 6218" d="M155.522,231.743c.116-.7.237-1.542.4-2.376.4-2.042.818-4.08,1.23-6.119q.584-2.895,1.173-5.789a5.008,5.008,0,0,1,.256-.863c.041-.1.194-.156.295-.232.077.107.224.217.218.318-.039.629-.088,1.26-.179,1.883-.3,2.033-.6,4.065-.933,6.092-.277,1.68-.6,3.351-.9,5.027-.121.676-.223,1.356-.352,2.03a1.7,1.7,0,0,1-.238.694.877.877,0,0,1-.581.349c-.273,0-.387-.266-.388-.542,0-.111,0-.22,0-.474" transform="translate(-53.81 -74.862)" fill="#e52e00"></path>
    <path id="Path_6219" data-name="Path 6219" d="M143.465,127.346a7.048,7.048,0,0,1,3.586,3.684c3.26,5.8,1.56,11.5-5.629,11.977a.359.359,0,0,1-.153-.693c5.488-2,6.248-5.117,3.5-10.059a11.506,11.506,0,0,1-1.859-4.47.412.412,0,0,1,.557-.439" transform="translate(-48.8 -44.051)" fill="#260000"></path>
    <path id="Path_6220" data-name="Path 6220" d="M121.62,160.775a26.2,26.2,0,0,0,12.6-2.282,15.228,15.228,0,0,0,6.836-5.562c.278-.434,1.012-.836.488-1.562a12.143,12.143,0,0,0-1.216.9c-3.266,3.086-7.32,4.466-11.6,5.318a32.643,32.643,0,0,1-14.34-.782,24.523,24.523,0,0,1-8.994-3.882c-.791-.594-1.354-1.226-.906-2.337a1.584,1.584,0,0,0-.175-1.139c-.092-.18-.506-.257-.778-.262-.159,0-.343.2-.482.35-1.133,1.177-2.274,2.349-3.369,3.56a1.1,1.1,0,0,0-.071.827c.031.149.279.286.456.361a.86.86,0,0,0,.593.08c.924-.43,1.466.135,2.18.608a36.362,36.362,0,0,0,7.6,4A31.526,31.526,0,0,0,121,160.774c.411.005.822,0,.617,0" transform="translate(-34.451 -51.617)" fill="#260000"></path>
  </g>
</svg>
